<svg xmlns="http://www.w3.org/2000/svg" version="1.1" width="0px" height="0px" display="none">
	<defs>
		<symbol id="robot" viewBox="0 0 256 64">
			<path d="M246 9v10h-13v36h-13V19h-13V9H246z M205 32c0 13.255-10.745 24-24 24s-24-10.745-24-24s10.745-24 24-24S205 18.7 205 32z M195 32c0-7.72-6.28-14-14-14s-14 6.28-14 14s6.28 14 14 14S195 39.7 195 32z M193 32c0 6.627-5.373 12-12 12s-12-5.373-12-12 c0-6.627 5.373-12 12-12S193 25.4 193 32z M188 32c0-3.86-3.141-7-7-7s-7 3.14-7 7c0 3.9 3.1 7 7 7S188 35.9 188 32z M152.382 42.484c0 6.791-4.551 12.516-13.722 12.516H111V9h26.82c9.241 0 13.7 5.8 13.7 11.71c0 5.811-3.57 9.54-7.98 10.5 C148.462 32 152.4 36.6 152.4 42.484z M123 27h12.09c2.45 0 4.131-1.725 4.131-4.035c0-2.24-1.681-3.965-4.131-3.965H123V27z M140.131 41c0-2.311-1.681-4-4.621-4H123v8h12.51C138.381 45 140.1 43.5 140.1 41z M105.552 25.745l-2.16 0.9 C103.785 28.4 104 30.2 104 32s-0.215 3.636-0.608 5.361l2.16 0.895c1.021 0.4 1.5 1.6 1.1 2.612l-1.53 3.7 c-0.423 1.021-1.593 1.506-2.613 1.082l-2.16-0.895c-1.924 3.061-4.519 5.655-7.58 7.58l0.895 2.2 c0.423 1.02-0.062 2.19-1.082 2.613l-3.695 1.531c-1.021 0.422-2.191-0.063-2.614-1.083l-0.895-2.16C83.635 55.8 81.8 56 80 56 s-3.635-0.215-5.359-0.608l-0.895 2.159c-0.423 1.021-1.593 1.506-2.613 1.083l-3.695-1.53c-1.021-0.423-1.505-1.594-1.082-2.613 l0.895-2.16c-3.062-1.924-5.656-4.519-7.581-7.58l-2.16 0.895c-1.021 0.424-2.189-0.061-2.613-1.082l-1.53-3.695 c-0.423-1.02 0.062-2.19 1.083-2.613l2.159-0.895C56.215 35.6 56 33.8 56 32s0.215-3.635 0.608-5.359l-2.159-0.895 c-1.021-0.423-1.506-1.593-1.083-2.613l1.53-3.696c0.423-1.02 1.594-1.505 2.613-1.083l2.161 0.9 c1.924-3.061 4.519-5.655 7.58-7.579l-0.896-2.161c-0.423-1.021 0.063-2.19 1.083-2.613l3.695-1.531 c1.021-0.423 2.2 0.1 2.6 1.083l0.895 2.16C76.365 8.2 78.2 8 80 8c1.844 0 3.6 0.2 5.4 0.608l0.895-2.16 c0.422-1.02 1.593-1.504 2.612-1.083l3.695 1.531c1.021 0.4 1.5 1.6 1.1 2.613l-0.895 2.2 c3.061 1.9 5.7 4.5 7.6 7.579l2.161-0.895c1.021-0.422 2.2 0.1 2.6 1.083l1.531 3.7 C107.057 24.2 106.6 25.3 105.6 25.745z M94 32c0-7.72-6.28-14-14-14s-14 6.28-14 14c0 7.7 6.3 14 14 14S94 39.7 94 32z M92 32c0 6.627-5.373 12-12 12c-6.627 0-12-5.373-12-12s5.373-12 12-12C86.627 20 92 25.4 92 32z M87 32c0-3.86-3.141-7-7-7 c-3.86 0-7 3.14-7 7s3.14 7 7 7C83.859 39 87 35.9 87 32z M40.782 38.1L50.303 55H36.511L28.67 40H23v15H10V9h23.851 c10.361 0 16.2 6.7 16.2 15.351C50.093 32.5 45.1 36.6 40.8 38.1z M37.841 23.965c0-3.15-2.66-4.965-5.811-4.965H23v10 h9.031C35.181 29 37.8 27.3 37.8 23.965z" />
		</symbol>
		<symbol id="github" viewBox="0 0 208 64">
			<path d="M186.426 22.842c-5.066 0-8.513 2.2-8.513 2.2v-15.5c0-0.405-0.333-0.73-0.742-0.73h-9.016c-0.41 0-0.743 0.325-0.743 0.7 v45.775c0 0.4 0.3 0.7 0.7 0.732c0.001 0 6.3 0 6.3 0c0.281 0 0.494-0.141 0.652-0.389 c0.155-0.246 0.38-2.109 0.38-2.109s3.687 3.4 10.7 3.398c8.193 0 12.892-4.044 12.892-18.153 C199 24.7 191.5 22.8 186.4 22.842z M182.907 48.634c-3.095-0.091-5.192-1.458-5.192-1.458V32.68c0 0 2.07-1.234 4.61-1.455 c3.213-0.281 6.3 0.7 6.3 8.121C188.634 47.2 187.2 48.8 182.9 48.634z M162.788 24.603l0.003 30.7 c0 0.403-0.335 0.731-0.744 0.731l-5.76 0.024c-0.287 0-0.554-0.198-0.656-0.396c-0.102-0.197-0.328-1.864-0.328-1.864 s-4.744 3.163-10.628 3.163c-7.174 0-12.387-2.227-12.387-11.331c0-9.103 0-21.056 0-21.056c0-0.403 0.334-0.731 0.743-0.731h9.054 c0.409 0 0.7 0.3 0.7 0.731c0 0 0 16.5 0 19.575c0 3.1 0.9 4.5 4.1 4.484c3.216 0 5.482-1.614 5.482-1.614V24.603 c0-0.403 0.333-0.731 0.742-0.731h8.921C162.454 23.9 162.8 24.2 162.8 24.603z M127.878 55.3 c-0.001 0.404-0.331 0.732-0.742 0.732h-9.011c-0.411 0-0.745-0.328-0.745-0.732c0-0.002 0.024-19.58 0.024-19.58h-14.013v19.58 c0 0.404-0.331 0.732-0.742 0.732h-8.99c-0.409 0-0.743-0.328-0.743-0.732V9.542c0-0.405 0.334-0.73 0.743-0.73h8.99 c0.411 0 0.7 0.3 0.7 0.73v16.905h14.013c0 0-0.002-16.903-0.002-16.905c0-0.405 0.333-0.73 0.745-0.73h8.988 c0.412 0 0.7 0.3 0.7 0.73V55.317z M88.498 24.527v7.052c0 0.405-0.333 0.731-0.745 0.731h-6.744 c0 0 0 10.9 0 12.87c0 1.9 1.1 3.4 4.4 3.438c1.035 0 2.041-0.155 2.434-0.155c0.395 0 0.7 0.3 0.7 0.7 l-0.007 6.192c0 0.292-0.156 0.562-0.423 0.657c-0.441 0.157-3.115 0.857-5.351 0.857c-4.894 0-12.145-0.989-12.145-11.048 c0-7.655 0-13.543 0-13.543h-4.712c-0.411 0-0.743-0.326-0.743-0.731V25.95c0-0.333 0.228-0.611 0.538-0.699 c0.312-0.087 4.917-1.169 4.917-1.169v-8.958c0-0.334 0.191-0.488 0.549-0.488h9.189c0.39 0 0.6 0.2 0.6 0.5 c0 0 0 8.7 0 8.669h6.743C88.165 23.8 88.5 24.1 88.5 24.527z M61.917 54.875c0 0.745-0.218 1.169-1.104 1.2 c-4.249 0-8.074 0-8.074 0c-0.737 0-1.307-0.265-1.307-1.154c0-4.848 0-30.274 0-30.274c0-0.401 0.367-0.813 0.778-0.813h8.962 c0.411 0 0.7 0.3 0.7 0.729c0 0 0 20 0 21.13C61.917 46.9 61.9 53.3 61.9 54.875z M56.762 21.2 c-3.199 0-5.796-2.552-5.796-5.699c0-3.15 2.597-5.696 5.796-5.696c3.203 0 5.8 2.5 5.8 5.7 C62.559 18.7 60 21.2 56.8 21.248z M46.341 29.127v23.691c0 0.136-0.024 0.433-0.242 0.55c0 0-5.299 3.632-14.033 3.6 C21.518 57 9 53.8 9 32.626C9 11.4 19.9 7 30.6 7c9.252 0 12.9 2 13.5 2.412c0.219 0.2 0.3 0.4 0.3 0.6 l-1.781 7.339c0 0.401-0.43 0.852-0.895 0.713c-1.478-0.445-3.801-1.369-9.194-1.369c-6.229 0-12.865 1.794-12.865 15.4 c0 13.6 6.4 15.3 10.9 15.258c3.866 0 5.265-0.465 5.265-0.465v-9.438h-6.229c-0.412 0-0.747-0.326-0.747-0.727v-7.595 c0-0.401 0.334-0.727 0.747-0.727h15.966C46.006 28.4 46.3 28.7 46.3 29.127z" />
		</symbol>

		<symbol id="simple" viewBox="0 0 256 256">
			<path d="M128 32c-53.019 0-96 42.98-96 96c0 53 43 96 96 96s96-42.981 96-96C224 75 181 32 128 32z M128 204 c-41.906 0-76-34.094-76-76c0-41.907 34.093-76 76-76c41.907 0 76 34.1 76 76C204 169.9 169.9 204 128 204z M181.576 102.9 l-67.6 68.65c-1.899 1.929-5.004 1.925-6.899-0.008l-32.659-33.301c-1.894-1.932-1.891-5.091 0.008-7.02l11.269-11.445 c1.899-1.928 5.007-1.928 6.9 0l18.003 18.279l52.797-53.616c1.898-1.927 5.007-1.927 6.9 0l11.269 11.4 C183.476 97.8 183.5 101 181.6 102.905z" />
		</symbol>
		<symbol id="platform" viewBox="0 0 256 256">
			<path d="M160.11 196.86l8.468 18.159c-25.666 11.988-55.527 11.972-81.156 0l8.468-18.158 C116.739 206.6 140.3 206.1 160.1 196.86z M203.69 121.377l19.96-1.746c-2.446-28.177-17.362-54.049-40.578-70.283 L171.58 65.761C189.525 78.3 201.7 98.4 203.7 121.377z M84.419 65.762L72.927 49.349C49.746 65.6 34.8 91.4 32.4 119.6 l19.96 1.746C54.187 99.5 65.6 78.9 84.4 65.762z M65.82 132.146c-4.102-9.2-18.73-7.455-21.639 1.1 c-1.674 4.954-0.394 9.792-0.685 14.782c-0.515 8.816-6.047 10.017-11.142 21.127c-4.915 10.7 0.2 9.091-4.384 14 c-1.396 1.496-2.699 1.641-3.605 2.02c-5.119 2.136-1.16 6.498-2.822 10.249c-2.039 4.6 2 5.7 6.1 6.1 c7.487 0.8 7.7 3.6 13.2 3.397c4.875-0.14 4.358-2.571 6.178-3.375c5.045-2.226 9.287-2.046 15.088-0.335 c1.699 0.5 1.9 5.4 7.7 4.578c2.602-0.383 4.726-1.698 6.383-3.628c1.691-1.969 3.789-3.256 6.102-4.321 c3.062-1.411 5.818-2.916 4.201-6.016c-0.635-1.216-2.113-2.836-2.564-4.189c-0.791-2.372-0.671-4.649-2.845-5.751 c-0.443-0.227-0.478-0.463-0.35-0.89c4.367-14.735-12.095-23.909-13.032-32.733C67.313 144.4 68.3 137.7 65.8 132.146z M68.83 161.382c3.961 4 6 8.5 5.4 14.079c-0.042 0.4 0.1 0.5 0.4 0.723c2.995 1.8 4.8 2.6 4.4 4.8 c-0.064 0.381-0.222 0.574-0.682 0.392c0.316-1.52-0.641-2.35-1.77-3.05c-3.126-1.93-7.182-3.084-7.739 0.6 c-0.025 0.163-0.134 0.389-0.269 0.448c-2.12 0.967-2.9 2.826-3.246 4.91c-0.775 4.677-0.28 9.011-1.886 10.3 c-7.878 5.674-14.517 3.971-17.58 0.839c-0.634-0.647-1.384-1.93-2.11-2.944c0.75-0.166 2.893-0.358 2.579-2.633 c-0.419-3.03-4.41-6.042-7.003-7.701c-7.22-4.612-4.376-12.074 0.129-19.38c0.078-0.125 0.419-0.392-0.13 0.9 c-1.999 4.545-5.019 9.138-2.139 14.254c0.313 0.6 0.5 1 0.6 0.357c0.189-3.877 1.339-7.489 2.992-10.979 c1.798-3.795 3.541-7.619 4.574-11.704c0.32-1.269 0.507-2.568 0.775-3.958c0.878 0.6 1.2 0.8 2.4 1.8 c2.828 2.3 5.1 1.5 7.5 0.301c4.84-2.526 3.683-1.785 5.445-3.341c4.989 15.9 7.7 16 9.4 24.3 c0.089 0.4 0.3 0.6 0.7 0.661c1.217 0.1 1.2 0.1 1.485-1.052c1.338-6.172-2.995-10.629-4.106-12.156 C68.125 161 68.5 161 68.8 161.382z M27.81 200.576c-3.563-0.364-6.925-0.583-5.111-5.261 c1.351-3.479-1.724-7.199 1.612-8.86c1.615-0.805 3.261-0.793 4.601-2.657c1.345-1.871 3.129-4.67 6.121-2.413 c1.083 0.8 10.4 15.6 10.6 15.963c1.265 2.8 0.2 6.146-4.829 6.625C34.818 203.8 35.7 201.4 27.8 200.576z M73.108 185.093c1.597-0.302 2.923-1.117 4.13-2.17c1.052-0.914 4.623-0.964 5.3 3.523c0.492 3.5 2.1 3.7 3.2 6.3 c0.736 1.745-0.535 2.501-2.791 3.683c-2.906 1.521-4.699 1.91-7.072 4.671c-1.432 1.664-3.145 2.949-5.318 3.5 c-4.121 1.109-7.66-1.955-6.701-6.289c0.383-1.729 0.946-3.12 1.443-4.821c0.883-3.01 0.295-5.13 1.5-10.678 c0.221-1.005 0.847-1.85 1.926-2.385C69.248 183.3 70.3 185.6 73.1 185.093z M60.433 146.7 c1.104 0.7 1.3 1.8 0.6 2.933c-1.148 1.799-2.932 2.057-5.392 3.545c-3.38 2.043-4.938 0.993-6.668-0.156 c-0.782-0.518-1.53-1.1-2.228-1.725c-0.614-0.551-1.245-1.134-1.672-1.823c-0.512-0.823-0.251-1.598 0.502-2.216 c3.359-2.758 4.417-3.956 6.508-3.886C54.033 143.3 60.3 146.6 60.4 146.657z M53.494 142.5 c-0.112-1.613 0.287-3.074 1.465-4.239c1.66-1.644 4.186-1.375 5.5 0.612c1.379 2.1 1.3 4.3 0.1 6.5 c-0.369 0.662-0.553 0.412-2.312-0.338c1.382-2.479 0.289-4.778-1.037-4.842c-1.894-0.09-1.941 2.938-1.991 3.3 C53.863 143 53.5 143 53.5 142.517z M75.24 179.007c2.764 2.22-3.395 6.343-5.036 3.2 C68.126 178.2 70.7 175.4 75.2 179.007z M47.504 140.723c-1.34 0.12-1.385 2.94-0.309 4.5 c-0.734 0.717-0.944 0.717-1.422-0.176c-1.027-1.918-1.229-3.9-0.155-5.856c0.961-1.746 2.782-1.824 3.974-0.217 c0.789 1.1 1.1 2.3 1 3.598c-0.021 0.45-0.436 0.526-1.461 0.97C48.792 142.2 48.7 140.6 47.5 140.723z M45.685 148.507c0.537 0.5 1.4 1.4 2 1.877c2.147 1.7 4.5 2 7 0.844c1.701-0.81 3.336-1.758 4.992-2.664 c0.465-0.308 0.159-0.723-0.238-0.514c-1.57 0.832-2.514 1.413-4.314 2.326c-1.528 0.774-3.128 1.224-4.865 0.7 c-1.962-0.594-3.206-1.897-4.133-2.818C45.685 147.9 45.4 148.3 45.7 148.507z M226.882 153.3 c-4.763-6.882-12.179-7.826-14.822-7.937c-6.311-0.632-12.313 3.668-15.51 3.668c-3.202 0-8.139-3.575-13.376-3.476 c-6.879 0.104-13.22 3.948-16.767 10.03c-10.978 18.8 7.2 50.8 17.9 50.432c5.136-0.199 7.076-3.273 13.275-3.273 c6.205 0 8 3.3 13.4 3.173c7.987-0.143 15.581-13.668 18.015-21.207C214.726 178.1 214.9 160.6 226.9 153.278z M212.143 126c-9.457 0.38-17.35 10.21-16.233 18.438C204.732 145.1 213.2 135.4 212.1 126z M142.322 18.949l-7.647 26.3 c6.711 4.5 14.8 8.2 29.7 1.612L172 20.649C156.494 27 149 23.4 142.3 18.949z M99.611 45.363L92 71.7 c15.542-6.373 22.863-2.675 29.6 1.819v0l7.753-26.422C122.623 42.6 115.2 39 99.6 45.363z M130.64 42.36l7.644-26.168 c-6.726-4.519-14.187-8.123-29.72-1.754l-7.65 26.292C115.166 34.9 121.9 36.5 130.6 42.36z M133.381 49.654l-7.628 26.2 c6.718 4.5 14.2 8.1 29.7 1.758l7.65-26.205C147.58 57.7 140.1 54.1 133.4 49.654z" />
		</symbol>
		<symbol id="native" viewBox="0 0 256 256">
			<path d="M177.271 156.135c-9.775 17.081-28.179 28.595-49.271 28.6 c-31.347 0-56.73-25.414-56.73-56.73c0-31.331 25.399-56.73 56.73-56.73c20.986 0 39.3 11.4 49.1 28.339l-24.692 14.2 c-4.893-8.414-13.999-14.075-24.432-14.075c-15.601 0-28.249 12.647-28.249 28.249c0 15.5 12.6 28.2 28.2 28.2 c10.565 0 19.77-5.806 24.615-14.396L177.271 156.135z M213.415 167.55c0 0 0-52.729-0.008-79.101 c-0.002-6.24-2.587-11.26-8.269-14.551c-22.742-13.113-45.507-26.186-68.243-39.313c-6.129-3.539-12.071-3.41-18.155 0.2 c-9.052 5.339-54.373 31.304-67.878 39.126c-5.562 3.22-8.268 8.147-8.269 14.552c-0.009 26.4 0 52.744-0.009 79.1 c0.002 6.2 2.6 11.3 8.3 14.553c13.506 7.8 58.8 33.8 67.9 39.126c6.087 3.6 12 3.7 18.2 0.2 c22.736-13.127 45.502-26.199 68.247-39.313C210.828 178.8 213.4 173.8 213.4 167.55z M185 131h-6v7h-7v-7h-6v-6h6v-7h7v7h6 V131z M209 131h-7v7h-6v-7h-7v-6h7v-7h6v7h7V131z" />
		</symbol>
		<symbol id="nodejs" viewBox="0 0 256 256">
			<path d="M127.983 224c-2.571 0-5.13-0.677-7.379-1.975L97.111 208.12c-3.505-1.951-1.793-2.651-0.637-3.049 c4.68-1.624 5.626-1.998 10.622-4.838c0.52-0.292 1.209-0.175 1.7 0.129l18.047 10.715c0.655 0.4 1.6 0.4 2.2 0 l70.359-40.604c0.654-0.374 1.075-1.122 1.075-1.905V87.374c0-0.795-0.421-1.542-1.093-1.939l-70.33-40.582 c-0.649-0.374-1.513-0.374-2.168 0L56.601 85.446c-0.683 0.385-1.116 1.156-1.116 1.928v81.193c0 0.8 0.4 1.5 1.1 1.9 l19.274 11.136c10.458 5.2 16.861-0.936 16.861-7.116V94.303c0-1.133 0.911-2.033 2.044-2.033h8.921 c1.116 0 2 0.9 2 2.033v80.166c0 13.952-7.601 21.956-20.834 21.956c-4.066 0-7.268 0-16.207-4.394l-18.45-10.633 c-4.557-2.63-7.379-7.561-7.379-12.831V87.374c0-5.282 2.822-10.201 7.379-12.83l70.359-40.651c4.452-2.524 10.37-2.524 14.8 0 l70.354 40.651c4.557 2.6 7.4 7.5 7.4 12.83v81.193c0 5.271-2.834 10.178-7.391 12.831l-70.354 40.6 C133.142 223.3 130.6 224 128 224z M184.794 143.948c0-15.199-10.271-19.242-31.894-22.104 c-21.852-2.892-24.071-4.382-24.071-9.5c0-4.218 1.881-9.856 18.065-9.856c14.454 0 19.8 3.1 22 12.9 c0.193 0.9 1 1.6 2 1.589h9.132c0.567 0 1.104-0.245 1.489-0.648c0.387-0.427 0.591-0.982 0.538-1.566 c-1.413-16.785-12.567-24.608-35.106-24.608c-20.063 0-32.028 8.471-32.028 22.663c0 15.4 11.9 19.7 31.2 21.6 c23.036 2.3 24.8 5.6 24.8 10.154c0 7.863-6.31 11.218-21.132 11.218c-18.62 0-22.715-4.675-24.088-13.941 c-0.158-0.98-1.004-1.717-2.021-1.717h-9.096c-1.127 0-2.034 0.899-2.034 2.033c0 11.8 6.5 26 37.2 26 C172.01 168.1 184.8 159.3 184.8 143.948z" />
		</symbol>
	</defs>
</svg>
