<svg xmlns="http://www.w3.org/2000/svg" version="1.1" width="0px" height="0px" display="none">
	<defs>
		<symbol id="logo" viewBox="0 0 256 64">
			<path d="M246 9v10h-13v36h-13V19h-13V9H246zM205 32c0 13.3-10.7 24-24 24s-24-10.7-24-24 10.7-24 24-24S205 18.7 205 32zM195 32c0-7.7-6.3-14-14-14 -7.7 0-14 6.3-14 14s6.3 14 14 14C188.7 46 195 39.7 195 32zM193 32c0 6.6-5.4 12-12 12s-12-5.4-12-12c0-6.6 5.4-12 12-12S193 25.4 193 32zM188 32c0-3.9-3.1-7-7-7 -3.9 0-7 3.1-7 7 0 3.9 3.1 7 7 7C184.9 39 188 35.9 188 32zM152.4 42.5c0 6.8-4.6 12.5-13.7 12.5H111V9h26.8c9.2 0 13.7 5.8 13.7 11.7 0 5.8-3.6 9.5-8 10.5C148.5 32 152.4 36.6 152.4 42.5zM123 27h12.1c2.5 0 4.1-1.7 4.1-4 0-2.2-1.7-4-4.1-4H123V27zM140.1 41c0-2.3-1.7-4-4.6-4H123v8h12.5C138.4 45 140.1 43.5 140.1 41zM105.6 25.7l-2.2 0.9c0.8 3.6 0.8 7.2 0 10.7l2.2 0.9c1 0.4 1.5 1.6 1.1 2.6l-1.5 3.7c-0.4 1-1.6 1.5-2.6 1.1l-2.2-0.9c-1.9 3.1-4.5 5.7-7.6 7.6l0.9 2.2c0.4 1-0.1 2.2-1.1 2.6l-3.7 1.5c-1 0.4-2.2-0.1-2.6-1.1l-0.9-2.2c-3.5 0.8-7.2 0.8-10.7 0l-0.9 2.2c-0.4 1-1.6 1.5-2.6 1.1l-3.7-1.5c-1-0.4-1.5-1.6-1.1-2.6l0.9-2.2c-3.1-1.9-5.7-4.5-7.6-7.6l-2.2 0.9c-1 0.4-2.2-0.1-2.6-1.1l-1.5-3.7c-0.4-1 0.1-2.2 1.1-2.6l2.2-0.9c-0.8-3.6-0.8-7.2 0-10.7l-2.2-0.9c-1-0.4-1.5-1.6-1.1-2.6l1.5-3.7c0.4-1 1.6-1.5 2.6-1.1l2.2 0.9c1.9-3.1 4.5-5.7 7.6-7.6l-0.9-2.2c-0.4-1 0.1-2.2 1.1-2.6l3.7-1.5c1-0.4 2.2 0.1 2.6 1.1l0.9 2.2c3.5-0.8 7.1-0.8 10.7 0l0.9-2.2c0.4-1 1.6-1.5 2.6-1.1l3.7 1.5c1 0.4 1.5 1.6 1.1 2.6l-0.9 2.2c3.1 1.9 5.7 4.5 7.6 7.6l2.2-0.9c1-0.4 2.2 0.1 2.6 1.1l1.5 3.7C107.1 24.2 106.6 25.3 105.6 25.7zM94 32c0-7.7-6.3-14-14-14s-14 6.3-14 14c0 7.7 6.3 14 14 14S94 39.7 94 32zM92 32c0 6.6-5.4 12-12 12 -6.6 0-12-5.4-12-12 0-6.6 5.4-12 12-12C86.6 20 92 25.4 92 32zM87 32c0-3.9-3.1-7-7-7 -3.9 0-7 3.1-7 7s3.1 7 7 7C83.9 39 87 35.9 87 32zM40.8 38.1L50.3 55H36.5L28.7 40H23v15H10V9h23.9c10.4 0 16.2 6.7 16.2 15.4C50.1 32.5 45.1 36.6 40.8 38.1zM37.8 24c0-3.1-2.7-5-5.8-5H23v10h9C35.2 29 37.8 27.3 37.8 24z" />
		</symbol>
		<symbol id="github" viewBox="0 0 208 64">
			<path d="M186.426 22.842c-5.066 0-8.513 2.2-8.513 2.2v-15.5c0-0.405-0.333-0.73-0.742-0.73h-9.016c-0.41 0-0.743 0.325-0.743 0.7 v45.775c0 0.4 0.3 0.7 0.7 0.732c0.001 0 6.3 0 6.3 0c0.281 0 0.494-0.141 0.652-0.389 c0.155-0.246 0.38-2.109 0.38-2.109s3.687 3.4 10.7 3.398c8.193 0 12.892-4.044 12.892-18.153 C199 24.7 191.5 22.8 186.4 22.842z M182.907 48.634c-3.095-0.091-5.192-1.458-5.192-1.458V32.68c0 0 2.07-1.234 4.61-1.455 c3.213-0.281 6.3 0.7 6.3 8.121C188.634 47.2 187.2 48.8 182.9 48.634z M162.788 24.603l0.003 30.7 c0 0.403-0.335 0.731-0.744 0.731l-5.76 0.024c-0.287 0-0.554-0.198-0.656-0.396c-0.102-0.197-0.328-1.864-0.328-1.864 s-4.744 3.163-10.628 3.163c-7.174 0-12.387-2.227-12.387-11.331c0-9.103 0-21.056 0-21.056c0-0.403 0.334-0.731 0.743-0.731h9.054 c0.409 0 0.7 0.3 0.7 0.731c0 0 0 16.5 0 19.575c0 3.1 0.9 4.5 4.1 4.484c3.216 0 5.482-1.614 5.482-1.614V24.603 c0-0.403 0.333-0.731 0.742-0.731h8.921C162.454 23.9 162.8 24.2 162.8 24.603z M127.878 55.3 c-0.001 0.404-0.331 0.732-0.742 0.732h-9.011c-0.411 0-0.745-0.328-0.745-0.732c0-0.002 0.024-19.58 0.024-19.58h-14.013v19.58 c0 0.404-0.331 0.732-0.742 0.732h-8.99c-0.409 0-0.743-0.328-0.743-0.732V9.542c0-0.405 0.334-0.73 0.743-0.73h8.99 c0.411 0 0.7 0.3 0.7 0.73v16.905h14.013c0 0-0.002-16.903-0.002-16.905c0-0.405 0.333-0.73 0.745-0.73h8.988 c0.412 0 0.7 0.3 0.7 0.73V55.317z M88.498 24.527v7.052c0 0.405-0.333 0.731-0.745 0.731h-6.744 c0 0 0 10.9 0 12.87c0 1.9 1.1 3.4 4.4 3.438c1.035 0 2.041-0.155 2.434-0.155c0.395 0 0.7 0.3 0.7 0.7 l-0.007 6.192c0 0.292-0.156 0.562-0.423 0.657c-0.441 0.157-3.115 0.857-5.351 0.857c-4.894 0-12.145-0.989-12.145-11.048 c0-7.655 0-13.543 0-13.543h-4.712c-0.411 0-0.743-0.326-0.743-0.731V25.95c0-0.333 0.228-0.611 0.538-0.699 c0.312-0.087 4.917-1.169 4.917-1.169v-8.958c0-0.334 0.191-0.488 0.549-0.488h9.189c0.39 0 0.6 0.2 0.6 0.5 c0 0 0 8.7 0 8.669h6.743C88.165 23.8 88.5 24.1 88.5 24.527z M61.917 54.875c0 0.745-0.218 1.169-1.104 1.2 c-4.249 0-8.074 0-8.074 0c-0.737 0-1.307-0.265-1.307-1.154c0-4.848 0-30.274 0-30.274c0-0.401 0.367-0.813 0.778-0.813h8.962 c0.411 0 0.7 0.3 0.7 0.729c0 0 0 20 0 21.13C61.917 46.9 61.9 53.3 61.9 54.875z M56.762 21.2 c-3.199 0-5.796-2.552-5.796-5.699c0-3.15 2.597-5.696 5.796-5.696c3.203 0 5.8 2.5 5.8 5.7 C62.559 18.7 60 21.2 56.8 21.248z M46.341 29.127v23.691c0 0.136-0.024 0.433-0.242 0.55c0 0-5.299 3.632-14.033 3.6 C21.518 57 9 53.8 9 32.626C9 11.4 19.9 7 30.6 7c9.252 0 12.9 2 13.5 2.412c0.219 0.2 0.3 0.4 0.3 0.6 l-1.781 7.339c0 0.401-0.43 0.852-0.895 0.713c-1.478-0.445-3.801-1.369-9.194-1.369c-6.229 0-12.865 1.794-12.865 15.4 c0 13.6 6.4 15.3 10.9 15.258c3.866 0 5.265-0.465 5.265-0.465v-9.438h-6.229c-0.412 0-0.747-0.326-0.747-0.727v-7.595 c0-0.401 0.334-0.727 0.747-0.727h15.966C46.006 28.4 46.3 28.7 46.3 29.127z" />
		</symbol>
		<symbol id="octocat" viewBox="0 0 256 256">
			<path d="M256 131.2c0 58-36.6 107.1-87.5 124.5 -6.5 1.3-8.8-2.8-8.8-6.3 0-4.3 0.1-18.5 0.1-36 0-12.2-4.1-20.2-8.7-24.3 28.5-3.2 58.4-14.3 58.4-64.8 0-14.3-5-26-13.2-35.2 1.3-3.3 5.7-16.7-1.3-34.7 0 0-10.7-3.5-35.2 13.5 -10.2-2.9-21.2-4.4-32.1-4.4 -10.9 0.1-21.8 1.5-32 4.4C71.5 50.9 60.8 54.4 60.8 54.4c-7 18.1-2.6 31.4-1.2 34.7 -8.2 9.2-13.2 20.9-13.2 35.2 0 50.3 29.9 61.5 58.3 64.9 -3.7 3.3-7 9.1-8.1 17.6 -7.3 3.4-25.8 9.2-37.2-10.9 0 0-6.8-12.6-19.6-13.5 0 0-12.5-0.2-0.9 8 0 0 8.4 4 14.2 19.2 0 0 7.5 23.4 43.1 15.5 0.1 11 0.2 21.3 0.2 24.4 0 3.5-2.3 7.5-8.7 6.3C36.7 238.4 0 189.2 0 131.2 0 58.8 57.3 0 128 0 198.7 0 256 58.8 256 131.2zM48.5 188.4c0.3-0.7-0.2-1.6-1.1-2 -0.9-0.4-1.9-0.3-2.2 0.4 -0.3 0.7 0.2 1.5 1.1 2C47.2 189.3 48.2 189.1 48.5 188.4L48.5 188.4zM46.9 187.2 53.7 194.4c0.6-0.6 0.5-1.8-0.4-2.7 -0.8-0.9-2-1.2-2.6-0.6 -0.6 0.6-0.5 1.8 0.4 2.7C51.9 194.7 53.1 194.9 53.7 194.4L53.7 194.4zM52.4 193 58.7 201.9c0.8-0.6 0.8-2 0-3.2 -0.8-1.2-2.1-1.7-2.9-1.1 -0.8 0.6-0.8 2 0 3.1C56.6 202 57.9 202.5 58.7 201.9L58.7 201.9zM58.7 201.9 65.6 209.2c0.7-0.8 0.4-2.3-0.7-3.4 -1.1-1.1-2.6-1.3-3.3-0.5 -0.7 0.8-0.4 2.3 0.7 3.4C63.4 209.8 64.9 210 65.6 209.2L65.6 209.2zM65.6 209.2 75.2 213.5c0.3-1-0.6-2.2-2.1-2.7 -1.5-0.5-2.9 0-3.2 1.1 -0.3 1 0.7 2.2 2.1 2.7C73.4 215 74.9 214.5 75.2 213.5L75.2 213.5zM75.2 213.5 85.6 214.2c0-1.1-1.2-1.9-2.8-1.9 -1.5 0-2.7 0.9-2.7 2 0 1.1 1.3 1.9 2.8 1.9C84.4 216.2 85.7 215.3 85.6 214.2L85.6 214.2zM85.6 214.2 95.4 212.5c-0.2-1.1-1.5-1.7-3.1-1.4 -1.5 0.3-2.6 1.4-2.4 2.4 0.2 1 1.6 1.7 3.1 1.4C94.5 214.7 95.6 213.6 95.4 212.5L95.4 212.5zM95.4 212.5" />
		</symbol>

		<symbol id="simple" viewBox="0 0 256 256">
			<path d="M128 32c-53 0-96 43-96 96 0 53 43 96 96 96s96-43 96-96C224 75 181 32 128 32zM128 204c-41.9 0-76-34.1-76-76 0-41.9 34.1-76 76-76 41.9 0 76 34.1 76 76C204 169.9 169.9 204 128 204zM181.6 102.9l-67.6 68.7c-1.9 1.9-5 1.9-6.9 0l-32.7-33.3c-1.9-1.9-1.9-5.1 0-7l11.3-11.4c1.9-1.9 5-1.9 6.9 0l18 18.3 52.8-53.6c1.9-1.9 5-1.9 6.9 0l11.3 11.4C183.5 97.8 183.5 101 181.6 102.9z" />
		</symbol>
		<symbol id="platform" viewBox="0 0 256 256">
			<path d="M160.1 196.9l8.5 18.2c-25.7 12-55.5 12-81.2 0l8.5-18.2C116.7 206.6 140.3 206.1 160.1 196.9zM203.7 121.4l20-1.7c-2.4-28.2-17.4-54-40.6-70.3L171.6 65.8C189.5 78.3 201.7 98.4 203.7 121.4zM84.4 65.8L72.9 49.3C49.7 65.6 34.8 91.4 32.4 119.6l20 1.7C54.2 99.5 65.6 78.9 84.4 65.8zM65.8 132.1c-4.1-9.2-18.7-7.5-21.6 1.1 -1.7 5-0.4 9.8-0.7 14.8 -0.5 8.8-6 10-11.1 21.1 -4.9 10.7 0.2 9.1-4.4 14 -1.4 1.5-2.7 1.6-3.6 2 -5.1 2.1-1.2 6.5-2.8 10.2 -2 4.6 2 5.7 6.1 6.1 7.5 0.8 7.7 3.6 13.2 3.4 4.9-0.1 4.4-2.6 6.2-3.4 5-2.2 9.3-2 15.1-0.3 1.7 0.5 1.9 5.4 7.7 4.6 2.6-0.4 4.7-1.7 6.4-3.6 1.7-2 3.8-3.3 6.1-4.3 3.1-1.4 5.8-2.9 4.2-6 -0.6-1.2-2.1-2.8-2.6-4.2 -0.8-2.4-0.7-4.6-2.8-5.8 -0.4-0.2-0.5-0.5-0.3-0.9 4.4-14.7-12.1-23.9-13-32.7C67.3 144.5 68.3 137.7 65.8 132.1zM68.8 161.4c4 4 6 8.5 5.4 14.1 0 0.4 0.1 0.5 0.4 0.7 3 1.8 4.8 2.6 4.4 4.8 -0.1 0.4-0.2 0.6-0.7 0.4 0.3-1.5-0.6-2.3-1.8-3 -3.1-1.9-7.2-3.1-7.7 0.6 0 0.2-0.1 0.4-0.3 0.4 -2.1 1-2.9 2.8-3.2 4.9 -0.8 4.7-0.3 9-1.9 10.3 -7.9 5.7-14.5 4-17.6 0.8 -0.6-0.6-1.4-1.9-2.1-2.9 0.8-0.2 2.9-0.4 2.6-2.6 -0.4-3-4.4-6-7-7.7 -7.2-4.6-4.4-12.1 0.1-19.4 0.1-0.1 0.4-0.4-0.1 0.9 -2 4.5-5 9.1-2.1 14.3 0.3 0.6 0.5 1 0.6 0.4 0.2-3.9 1.3-7.5 3-11 1.8-3.8 3.5-7.6 4.6-11.7 0.3-1.3 0.5-2.6 0.8-4 0.9 0.6 1.2 0.8 2.4 1.8 2.8 2.3 5.1 1.5 7.5 0.3 4.8-2.5 3.7-1.8 5.4-3.3 5 15.9 7.7 16 9.4 24.3 0.1 0.4 0.3 0.6 0.7 0.7 1.2 0.1 1.2 0.1 1.5-1.1 1.3-6.2-3-10.6-4.1-12.2C68.1 161 68.5 161 68.8 161.4zM27.8 200.6c-3.6-0.4-6.9-0.6-5.1-5.3 1.4-3.5-1.7-7.2 1.6-8.9 1.6-0.8 3.3-0.8 4.6-2.7 1.3-1.9 3.1-4.7 6.1-2.4 1.1 0.8 10.4 15.6 10.6 16 1.3 2.8 0.2 6.1-4.8 6.6C34.8 203.8 35.7 201.4 27.8 200.6zM73.1 185.1c1.6-0.3 2.9-1.1 4.1-2.2 1.1-0.9 4.6-1 5.3 3.5 0.5 3.5 2.1 3.7 3.2 6.3 0.7 1.7-0.5 2.5-2.8 3.7 -2.9 1.5-4.7 1.9-7.1 4.7 -1.4 1.7-3.1 2.9-5.3 3.5 -4.1 1.1-7.7-2-6.7-6.3 0.4-1.7 0.9-3.1 1.4-4.8 0.9-3 0.3-5.1 1.5-10.7 0.2-1 0.8-1.8 1.9-2.4C69.2 183.3 70.3 185.6 73.1 185.1zM60.4 146.7c1.1 0.7 1.3 1.8 0.6 2.9 -1.1 1.8-2.9 2.1-5.4 3.5 -3.4 2-4.9 1-6.7-0.2 -0.8-0.5-1.5-1.1-2.2-1.7 -0.6-0.6-1.2-1.1-1.7-1.8 -0.5-0.8-0.3-1.6 0.5-2.2 3.4-2.8 4.4-4 6.5-3.9C54 143.3 60.3 146.6 60.4 146.7zM53.5 142.5c-0.1-1.6 0.3-3.1 1.5-4.2 1.7-1.6 4.2-1.4 5.5 0.6 1.4 2.1 1.3 4.3 0.1 6.5 -0.4 0.7-0.6 0.4-2.3-0.3 1.4-2.5 0.3-4.8-1-4.8 -1.9-0.1-1.9 2.9-2 3.3C53.9 143 53.5 143 53.5 142.5zM75.2 179c2.8 2.2-3.4 6.3-5 3.2C68.1 178.2 70.7 175.4 75.2 179zM47.5 140.7c-1.3 0.1-1.4 2.9-0.3 4.5 -0.7 0.7-0.9 0.7-1.4-0.2 -1-1.9-1.2-3.9-0.2-5.9 1-1.7 2.8-1.8 4-0.2 0.8 1.1 1.1 2.3 1 3.6 0 0.5-0.4 0.5-1.5 1C48.8 142.2 48.7 140.6 47.5 140.7zM45.7 148.5c0.5 0.5 1.4 1.4 2 1.9 2.1 1.7 4.5 2 7 0.8 1.7-0.8 3.3-1.8 5-2.7 0.5-0.3 0.2-0.7-0.2-0.5 -1.6 0.8-2.5 1.4-4.3 2.3 -1.5 0.8-3.1 1.2-4.9 0.7 -2-0.6-3.2-1.9-4.1-2.8C45.7 147.9 45.4 148.3 45.7 148.5zM226.9 153.3c-4.8-6.9-12.2-7.8-14.8-7.9 -6.3-0.6-12.3 3.7-15.5 3.7 -3.2 0-8.1-3.6-13.4-3.5 -6.9 0.1-13.2 3.9-16.8 10 -11 18.8 7.2 50.8 17.9 50.4 5.1-0.2 7.1-3.3 13.3-3.3 6.2 0 8 3.3 13.4 3.2 8-0.1 15.6-13.7 18-21.2C214.7 178.1 214.9 160.6 226.9 153.3zM212.1 126c-9.5 0.4-17.3 10.2-16.2 18.4C204.7 145.1 213.2 135.4 212.1 126zM160 46V16l-36 5.1V46H160zM121 21.5l-25 3.7V46h25V21.5zM96 49v21.7l25 3.8V49H96zM124 74.8L160 80V49h-36V74.8z" />
		</symbol>
		<symbol id="native" viewBox="0 0 256 256">
			<path d="M177.3 156.1c-9.8 17.1-28.2 28.6-49.3 28.6 -31.3 0-56.7-25.4-56.7-56.7 0-31.3 25.4-56.7 56.7-56.7 21 0 39.3 11.4 49.1 28.3l-24.7 14.2c-4.9-8.4-14-14.1-24.4-14.1 -15.6 0-28.2 12.6-28.2 28.2 0 15.5 12.6 28.2 28.2 28.2 10.6 0 19.8-5.8 24.6-14.4L177.3 156.1zM213.4 167.6c0 0 0-52.7 0-79.1 0-6.2-2.6-11.3-8.3-14.6 -22.7-13.1-45.5-26.2-68.2-39.3 -6.1-3.5-12.1-3.4-18.2 0.2 -9.1 5.3-54.4 31.3-67.9 39.1 -5.6 3.2-8.3 8.1-8.3 14.6 0 26.4 0 52.7 0 79.1 0 6.2 2.6 11.3 8.3 14.6 13.5 7.8 58.8 33.8 67.9 39.1 6.1 3.6 12 3.7 18.2 0.2 22.7-13.1 45.5-26.2 68.2-39.3C210.8 178.8 213.4 173.8 213.4 167.6zM185 131h-6v7h-7v-7h-6v-6h6v-7h7v7h6V131zM209 131h-7v7h-6v-7h-7v-6h7v-7h6v7h7V131z" />
		</symbol>
		<symbol id="nodejs" viewBox="0 0 256 256">
			<path d="M127.983 224c-2.571 0-5.13-0.677-7.379-1.975L97.111 208.12c-3.505-1.951-1.793-2.651-0.637-3.049 c4.68-1.624 5.626-1.998 10.622-4.838c0.52-0.292 1.209-0.175 1.7 0.129l18.047 10.715c0.655 0.4 1.6 0.4 2.2 0 l70.359-40.604c0.654-0.374 1.075-1.122 1.075-1.905V87.374c0-0.795-0.421-1.542-1.093-1.939l-70.33-40.582 c-0.649-0.374-1.513-0.374-2.168 0L56.601 85.446c-0.683 0.385-1.116 1.156-1.116 1.928v81.193c0 0.8 0.4 1.5 1.1 1.9 l19.274 11.136c10.458 5.2 16.861-0.936 16.861-7.116V94.303c0-1.133 0.911-2.033 2.044-2.033h8.921 c1.116 0 2 0.9 2 2.033v80.166c0 13.952-7.601 21.956-20.834 21.956c-4.066 0-7.268 0-16.207-4.394l-18.45-10.633 c-4.557-2.63-7.379-7.561-7.379-12.831V87.374c0-5.282 2.822-10.201 7.379-12.83l70.359-40.651c4.452-2.524 10.37-2.524 14.8 0 l70.354 40.651c4.557 2.6 7.4 7.5 7.4 12.83v81.193c0 5.271-2.834 10.178-7.391 12.831l-70.354 40.6 C133.142 223.3 130.6 224 128 224z M184.794 143.948c0-15.199-10.271-19.242-31.894-22.104 c-21.852-2.892-24.071-4.382-24.071-9.5c0-4.218 1.881-9.856 18.065-9.856c14.454 0 19.8 3.1 22 12.9 c0.193 0.9 1 1.6 2 1.589h9.132c0.567 0 1.104-0.245 1.489-0.648c0.387-0.427 0.591-0.982 0.538-1.566 c-1.413-16.785-12.567-24.608-35.106-24.608c-20.063 0-32.028 8.471-32.028 22.663c0 15.4 11.9 19.7 31.2 21.6 c23.036 2.3 24.8 5.6 24.8 10.154c0 7.863-6.31 11.218-21.132 11.218c-18.62 0-22.715-4.675-24.088-13.941 c-0.158-0.98-1.004-1.717-2.021-1.717h-9.096c-1.127 0-2.034 0.899-2.034 2.033c0 11.8 6.5 26 37.2 26 C172.01 168.1 184.8 159.3 184.8 143.948z" />
		</symbol>

		<symbol id="cacoo" viewBox="0 0 256 80">
			<path fill="#158AEA" d="M228.9 14.9c-8.2-0.8-16.4 1.9-21.3 5.6 -0.9 0.3-6.7 1.9-8.8 2.5 -12.7-11.8-32.2-10.7-43.5 2 -1.8-1.4-1-0.9-2.9-2.6 -12.7-10.7-32.9-9.4-43.8 4.8 -9.3-12.8-28-16.7-42-6.8C62.4 12.5 51.1 3.2 36 3.2c-21.9 0-38.8 19.4-35.6 42C4.4 72.9 36.5 84.3 56.8 69.4c21.6 5.6 14.4 3.7 18 4.8 5.9 1.9 12 1.9 18.1 0.1 6.7 3.2 15 0.7 19-5.5 12.5 11.2 32.2 10.8 44.1-2.6 13 13.6 34.6 12.1 45.8-2.1 16.9 21.2 49.9 11.5 53.8-14.2C258.4 32.2 245.5 16.6 228.9 14.9zM36.1 35c3 0 3.4 2.3 6.5 4.8 -3.6 2.5-3.7 4.3-6.5 4.3 -1.3 0-2.5-0.5-3.4-1.5C30.4 40.1 31.9 35 36.1 35z" />
			<path fill="#FFFFFF" d="M228.5 18.2c-6.3-0.6-13.1 0.9-18.8 4.8 -1.1 0.7 0.7 0.1-9.7 3 -2.9 0.8-2.1 0.8-3.1-0.2 -12.2-11.9-31.5-9.9-41.2 3.6 -5.3-3.9-3.3-2.7-5.6-4.7 -12-10.1-31.6-8.3-40.7 6.7 -0.5 0.8-0.4 0.6-1.3 1.4 -7.3-15.2-28.8-20.9-43.2-7.1 -1.2-6.8-9-13.5-15.3-16.3C34.7 2.7 17.2 7.8 8.4 21.7c-8.6 13.6-6.4 33.2 6.9 43.6 9.4 7.4 23.5 10.4 36.2 3.5 6-3.2 3.6-3.3 5.8-2.7 22.9 5.9 15 3.8 18.6 5 5.3 1.7 10.8 1.7 16.3 0 1.4-0.4 0.7-0.5 2 0.2 6.4 3.1 15-0.5 16.6-8.5 8.1 10.7 27 16.2 41.2 2.7 1.5-1.4 2.8-2.9 3.6-4.8 12 17 36.7 14.8 46.1-2.5 3.8 6.9 10.6 12 18.3 13.7 15.3 3.2 30-7.2 32.3-22.4C254.8 34 243.7 19.7 228.5 18.2zM40.4 46.1c-3.2 2.2-7.5 1.6-10.1-1.2 -2.6-2.8-2.6-7.5-0.2-10.4 2.4-2.8 6.6-3.6 9.7-1.7 2.2 1.3 2.6 2.9 5.1 4.8 1.8 1.4 3.8 2.3 6 2.6C45 40.5 42.1 44.9 40.4 46.1z" />
			<path fill="#8CD7ED" d="M51.7 47.3l14.8 4.1 10.7 13.9 -25.4-6.6V47.3zM100.9 62l14.8-13.1 0.8-15.6 -13.1 11.5L100.9 62zM162.5 41.5l-15.6-11.5 -2.5 10.7 15.6 12.3L162.5 41.5zM196.9 44l12.3-2.5 6.6-13.9 -26.3 7.4L196.9 44z" />
			<path fill="#158AEA" d="M36.9 12.3c8.5 0.4 15.5 3.9 20.8 10.7 6.1 7.8-4.3 16.5-10.8 8.4 -8.6-10.8-25.3-4.2-24.2 9.7 0.9 10.5 14.7 17 23.6 7.5 6.8-7.3 16.6 2.6 10.5 9 -7.7 8.2-18.1 11.6-28.9 8.1C17 61.9 10.5 54.1 9.2 42.5 7.3 25.9 20.7 11.5 36.9 12.3zM101.5 66.2c2.7-1.1 3.8-3.3 3.9-6.2 0.1-12.8-0.1-16.5-0.8-20 -3.1-14.6-20.7-21.1-32.8-12.4 -7 5-9.9 12-8.9 20.5 0.7 6.7 4 11.7 9.7 15.2 7 4.2 14.2 4.4 21.5 0.8C95.2 65 97.5 67.9 101.5 66.2zM93 45.3c-0.1 4.9-4.1 9-9 9 -4.9 0-8.9-4.1-9-9 -0.1-5 4-9.1 9-9.1C89.1 36.2 93.1 40.3 93 45.3zM177.8 66.7c10.9 0.1 22.3-8.9 21.5-23.5 -0.5-10-9.9-19.4-21.4-19.4 -11.7 0-21.5 9.7-21.5 21.4C156.5 56.8 166.2 66.5 177.8 66.7zM187 45.2c0 5-4.2 9.2-9.1 9.1 -4.9-0.1-8.9-4.1-8.9-9.1 0-5.1 4-9.1 9.1-9.1C183 36.2 187 40.3 187 45.2zM247 45.2c0-11.8-9.6-21.5-21.3-21.4 -11.6 0.1-21.4 8.7-21.4 21.4 0 11.9 9.6 21.5 21.4 21.5C237.4 66.6 247 57 247 45.2zM225.7 36.2c4.9 0.1 8.9 4.2 8.9 9.1 0 5-4.2 9.1-9.2 9 -4.9-0.1-8.9-4.2-8.9-9.1C216.6 40.1 220.6 36.1 225.7 36.2zM111.3 48.4c1 9.2 6.2 15.4 14.9 18.3 8.6 2.8 16.8 0.1 23-6.4 4.8-5.1-3-12.9-8.4-7.1 -7.1 7.6-18.1 2.4-18.8-5.9 -0.9-11.1 12.4-16.3 19.2-7.7 5.1 6.4 13.4-0.4 8.6-6.7 -4.2-5.4-9.8-8.2-16.5-8.5C120.5 23.7 109.8 35.1 111.3 48.4z" />
		</symbol>
		<symbol id="cheat" viewBox="0 0 256 256">
			<path fill="#257C91" opacity="1.0" d="M217.2 216.4l4.7 10.5c1.8 4 0 8.8-4.1 10.6l-29.2 13c-4 1.8-8.8 0-10.6-4.1l-4.7-10.6c-8 1.6-16.2 2.3-24.4 2.1l-2.8 11.3c-1.1 4.3-5.4 6.9-9.7 5.8l-31-7.7c-4.3-1.1-6.9-5.4-5.8-9.7l2.8-11.4c-7.3-3.7-14.2-8.2-20.5-13.4l-9.3 7.3c-3.5 2.7-8.5 2.1-11.2-1.4l-19.7-25.2c-2.7-3.5-2.1-8.5 1.4-11.2l9.3-7.3c-3.5-7.3-6.1-15-7.9-23.1h-11.9c-4.4 0-8-3.6-8-8v-32c0-4.4 3.6-8 8-8h11.9c1.8-8.1 4.5-15.8 7.9-23.1l-9.3-7.3c-3.5-2.7-4.1-7.8-1.4-11.2L61.4 37.2c2.7-3.5 7.8-4.1 11.2-1.4l9.3 7.3c6.3-5.2 13.1-9.7 20.5-13.4l-2.8-11.4c-1.1-4.3 1.6-8.6 5.8-9.7l31-7.7c4.3-1.1 8.6 1.6 9.7 5.8l2.8 11.3c8.2-0.2 16.4 0.5 24.4 2.1l4.7-10.6c1.8-4 6.5-5.8 10.6-4.1l29.2 13c4 1.8 5.8 6.5 4.1 10.6l-4.7 10.5c4.7 3.5 9.2 7.4 13.3 11.6 2.6 2.6-1.1 6.7-4 4.4C173 13.6 93 42.6 79.6 109.9l116.2 15.9c2.6 0.4 2.6 4.2 0 4.5l-116.2 15.9c13.4 67.3 93.4 96.3 146.9 54.3 2.9-2.3 6.6 1.8 4 4.4C226.4 209.1 222 212.9 217.2 216.4z" />
			<path fill="#000000" opacity="0.2" d="M72.6 220.2c-3.5 2.7-8.5 2.1-11.2-1.4l-19.7-25.2c-2.7-3.5-2.1-8.5 1.4-11.2l9.3-7.3c-3.5-7.3-6.1-15-7.9-23.1h-11.9c-4.4 0-8-3.6-8-8v-0.3c46.8-16.5 74-21 133.6-23.1l37.6 5.1c2.6 0.4 2.6 4.2 0 4.5l-116.2 15.9c13.4 67.3 93.4 96.3 146.9 54.3 2.9-2.3 6.6 1.8 4 4.4 -4.1 4.2-8.6 8.1-13.3 11.6l4.7 10.5c1.8 4 0 8.8-4.1 10.6l-29.2 13c-4 1.8-8.8 0-10.6-4.1l-4.7-10.6c-8 1.6-16.2 2.3-24.4 2.1l-2.8 11.3c-1.1 4.3-5.4 6.9-9.7 5.8l-31-7.7c-4.3-1.1-6.9-5.4-5.8-9.7l2.8-11.4c-7.3-3.7-14.2-8.2-20.5-13.4L72.6 220.2z" />
			<path fill="#000000" opacity="1.0" d="M138.3 2.7L138.3 2.7c2.8 0 5.2 1.9 5.8 4.5l2.8 11.3 0.4 1.6 1.6 0c1 0 1.9 0 2.9 0 7.1 0 14.2 0.7 21.1 2.1l1.6 0.3 0.6-1.5 4.7-10.6c1-2.2 3.1-3.6 5.5-3.6 0.8 0 1.6 0.2 2.4 0.5l29.2 13c1.5 0.6 2.6 1.8 3.2 3.3 0.6 1.5 0.5 3.1-0.1 4.6l-4.7 10.5 -0.7 1.5 1.3 1c4.7 3.5 9 7.3 13 11.4 0.3 0.3 0.4 0.6 0.2 1 -0.2 0.4-0.6 0.7-1 0.7 -0.2 0-0.4-0.1-0.6-0.2 -16.7-13.1-36.6-20-57.5-20 -44.9 0-83.8 31.8-92.6 75.5l-0.4 2.1 2.1 0.3 116.2 15.9c0.1 0 0.2 0 0.2 0.3 0 0.3-0.1 0.3-0.2 0.3l-116.2 15.8 -2.1 0.3 0.4 2.1c8.7 43.7 47.7 75.5 92.6 75.5 21 0 40.9-6.9 57.5-20 0.2-0.2 0.4-0.2 0.6-0.2 0.4 0 0.8 0.3 1 0.7 0.1 0.4 0.1 0.6-0.2 1 -4 4.1-8.4 7.9-13 11.4l-1.3 1 0.7 1.5 4.7 10.5c0.6 1.5 0.7 3.1 0.1 4.6 -0.6 1.5-1.7 2.7-3.2 3.3l-29.2 13c-0.8 0.3-1.6 0.5-2.4 0.5 -2.4 0-4.5-1.4-5.5-3.6l-4.7-10.6 -0.6-1.5 -1.6 0.3c-6.9 1.4-14 2.1-21.1 2.1 -1 0-1.9 0-2.9 0l-1.6 0 -0.4 1.6 -2.8 11.3c-0.7 2.7-3.1 4.5-5.8 4.5 -0.5 0-1-0.1-1.4-0.2l-31-7.7c-3.2-0.8-5.2-4.1-4.4-7.3l2.8-11.4 0.4-1.6 -1.4-0.7c-7.2-3.6-13.9-8-20.1-13.1l-1.2-1 -1.3 1 -9.3 7.3c-1.1 0.8-2.3 1.3-3.7 1.3 -1.9 0-3.6-0.8-4.7-2.3L43.2 192.4c-1-1.3-1.4-2.8-1.2-4.4 0.2-1.6 1-3 2.3-4l9.3-7.3 1.3-1 -0.7-1.4c-3.4-7.2-6-14.8-7.8-22.6L46.1 150h-1.6 -11.9c-3.3 0-6-2.7-6-6v-32c0-3.3 2.7-6 6-6h11.9 1.6l0.3-1.6c1.7-7.8 4.4-15.4 7.8-22.6l0.7-1.4 -1.3-1 -9.3-7.3c-1.3-1-2.1-2.4-2.3-4 -0.2-1.6 0.2-3.2 1.2-4.4l19.7-25.2c1.1-1.5 2.9-2.3 4.7-2.3 1.4 0 2.6 0.4 3.7 1.3l9.3 7.3 1.3 1 1.2-1c6.2-5.1 12.9-9.5 20.1-13.1l1.4-0.7 -0.4-1.6 -2.8-11.4c-0.8-3.2 1.2-6.5 4.4-7.3l31-7.7C137.4 2.7 137.8 2.7 138.3 2.7M138.3 0.7c-0.6 0-1.3 0.1-1.9 0.2l-31 7.7c-4.3 1.1-6.9 5.4-5.8 9.7l2.8 11.4c-7.3 3.7-14.2 8.2-20.5 13.4L72.6 35.8c-1.5-1.1-3.2-1.7-4.9-1.7 -2.4 0-4.7 1.1-6.3 3.1L41.7 62.4c-2.7 3.5-2.1 8.5 1.4 11.2l9.3 7.3c-3.5 7.3-6.1 15-7.9 23.1h-11.9c-4.4 0-8 3.6-8 8v32c0 4.4 3.6 8 8 8h11.9c1.8 8.1 4.5 15.8 7.9 23.1l-9.3 7.3c-3.5 2.7-4.1 7.8-1.4 11.2l19.7 25.2c1.6 2 3.9 3.1 6.3 3.1 1.7 0 3.5-0.6 4.9-1.7l9.3-7.3c6.3 5.2 13.1 9.7 20.5 13.4l-2.8 11.4c-1.1 4.3 1.6 8.6 5.8 9.7l31.1 7.7c0.6 0.2 1.3 0.2 1.9 0.2 3.6 0 6.9-2.4 7.8-6.1l2.8-11.3c1 0 1.9 0 2.9 0 7.2 0 14.4-0.7 21.5-2.1l4.7 10.6c1.3 3 4.3 4.7 7.3 4.7 1.1 0 2.2-0.2 3.2-0.7l29.2-13c4-1.8 5.8-6.5 4.1-10.6l-4.7-10.5c4.7-3.5 9.2-7.4 13.3-11.6 2-2.1 0.2-5.1-2.2-5.1 -0.6 0-1.2 0.2-1.8 0.7 -17.1 13.4-36.9 19.6-56.3 19.6 -41.5 0-81.5-28.1-90.6-73.9l116.2-15.8c2.6-0.4 2.6-4.2 0-4.5l-116.2-15.8c9.1-45.8 49.1-73.9 90.6-73.9 19.4 0 39.2 6.2 56.3 19.6 0.6 0.5 1.2 0.7 1.8 0.7 2.3 0 4.2-3 2.2-5.1 -4.1-4.2-8.6-8.1-13.3-11.6l4.7-10.5c1.8-4 0-8.8-4.1-10.6L188.6 5.5c-1-0.5-2.1-0.7-3.2-0.7 -3.1 0-6 1.8-7.3 4.7l-4.7 10.6c-7.1-1.4-14.3-2.1-21.5-2.1 -1 0-1.9 0-2.9 0l-2.8-11.3C145.2 3.1 141.9 0.7 138.3 0.7L138.3 0.7z" />
		</symbol>
		<symbol id="chromium" viewBox="0 0 256 256">
			<path fill="#FFFFFF" d="M192 128c0 35.3-28.7 64-64 64 -35.3 0-64-28.7-64-64 0-35.3 28.7-64 64-64C163.3 64 192 92.7 192 128z" />
			<path fill="#126BCB" d="M74.5 105.5C71.6 112.4 70 120 70 128c0 4.1 0.4 8.2 1.3 12L22.5 55.5c0.5-0.8 1-1.5 1.6-2.2L74.5 105.5z" />
			<path fill="#3B9BF8" d="M115.5 255.4C50.7 249.1 0 194.5 0 128c0-26.9 8.3-51.9 22.5-72.5l48.8 84.5C76.8 166.3 100.1 186 128 186c2.8 0 5.5-0.2 8.1-0.6L115.5 255.4z" />
			<path fill="#3791E7" d="M167.8 170.2l-49.2 85.4c-1-0.1-2-0.2-3-0.3l20.6-70C148.3 183.7 159.3 178.2 167.8 170.2z" />
			<path fill="#94C4FB" d="M128 256c-3.2 0-6.3-0.1-9.5-0.3l49.2-85.4C179 159.6 186 144.6 186 128c0-13.7-4.8-26.4-12.8-36.3l70.9-17.5C251.8 90.6 256 108.8 256 128 256 198.7 198.7 256 128 256z" />
			<path fill="#7DA5FC" d="M128 70h114.1c0.7 1.4 1.4 2.8 2 4.2l-70.9 17.5C162.6 78.5 146.3 70 128 70z" />
			<path fill="#1275DC" d="M242.1 70H128c-24 0-44.7 14.6-53.5 35.5L24.1 53.3C47.3 21 85.2 0 128 0 177.8 0 221 28.5 242.1 70z" />
			<path fill="#56ABF4" d="M177 128c0 27.1-21.9 49-49 49s-49-21.9-49-49c0-27.1 21.9-49 49-49S177 100.9 177 128z" />
		</symbol>
		<symbol id="cinder" viewBox="0 0 256 256">
			<path fill="#3C3C3C" d="M16 256l84-126 26 38 32-56 82 144H16z" />
			<rect fill="#962F34" x="122" y="130" width="4"  height="4"  />
			<rect fill="#B8292F" x="122" y="126" width="4"  height="4"  />
			<rect fill="#C9252C" x="118" y="126" width="4"  height="4"  />
			<rect fill="#C9252C" x="126" y="126" width="4"  height="4"  />
			<rect fill="#DA2128" x="122" y="122" width="4"  height="4"  />
			<rect fill="#C9252C" x="112" y="102" width="12" height="12" />
			<rect fill="#ED1C24" x="112" y="90"  width="12" height="12" />
			<rect fill="#EF4123" x="100" y="90"  width="12" height="12" />
			<rect fill="#EF4123" x="124" y="90"  width="12" height="12" />
			<rect fill="#F15A22" x="112" y="78"  width="12" height="12" />
			<rect fill="#ED1C24" x="142" y="76"  width="8"  height="8"  />
			<rect fill="#F15A22" x="142" y="68"  width="8"  height="8"  />
			<rect fill="#F58220" x="134" y="68"  width="8"  height="8"  />
			<rect fill="#F58220" x="150" y="68"  width="8"  height="8"  />
			<rect fill="#F7941E" x="142" y="60"  width="8"  height="8"  />
			<rect fill="#F15A22" x="106" y="60"  width="8"  height="8"  />
			<rect fill="#F37021" x="106" y="52"  width="8"  height="8"  />
			<rect fill="#F7941E" x="98"  y="52"  width="8"  height="8"  />
			<rect fill="#F7941E" x="114" y="52"  width="8"  height="8"  />
			<rect fill="#FAA61A" x="106" y="44"  width="8"  height="8"  />
			<rect fill="#F7941E" x="134" y="34"  width="12" height="12" />
			<rect fill="#FDB913" x="134" y="22"  width="12" height="12" />
			<rect fill="#FFDD00" x="122" y="22"  width="12" height="12" />
			<rect fill="#FFDD00" x="146" y="22"  width="12" height="12" />
			<rect fill="#FFF200" x="134" y="10"  width="12" height="12" />
		</symbol>
		<symbol id="java" viewBox="0 0 256 256">
			<path fill="#5382A1" d="M94.4 198c0 0-9.8 5.7 7 7.6 20.3 2.3 30.7 2 53-2.2 0 0 5.9 3.7 14.1 6.9C118.3 231.7 55 209 94.4 198M88.3 170c0 0-11 8.1 5.8 9.9 21.7 2.2 38.8 2.4 68.4-3.3 0 0 4.1 4.2 10.5 6.4C112.4 200.7 44.9 184.3 88.3 170M206.2 218.7c0 0 7.2 6-8 10.6 -28.9 8.8-120.4 11.4-145.8 0.3 -9.1-4 8-9.5 13.4-10.6 5.6-1.2 8.8-1 8.8-1 -10.2-7.2-65.7 14.1-28.2 20.1C148.6 254.7 232.7 230.7 206.2 218.7M99.1 140.9c0 0-46.5 11.1-16.5 15.1 12.7 1.7 38 1.3 61.5-0.7 19.3-1.6 38.6-5.1 38.6-5.1s-6.8 2.9-11.7 6.3c-47.2 12.4-138.5 6.6-112.2-6.1C81 139.7 99.1 140.9 99.1 140.9M182.6 187.6c48-25 25.8-48.9 10.3-45.7 -3.8 0.8-5.5 1.5-5.5 1.5s1.4-2.2 4.1-3.2c30.7-10.8 54.2 31.8-9.9 48.7C181.6 188.8 182.4 188.2 182.6 187.6M103.8 255.2c46.1 3 116.9-1.6 118.6-23.5 0 0-3.2 8.3-38.1 14.8 -39.3 7.4-87.9 6.5-116.7 1.8C67.6 248.4 73.5 253.3 103.8 255.2" />
			<path fill="#E76F00" d="M139.9 122.4c12.3 14.2-3.2 27-3.2 27s31.4-16.2 17-36.5c-13.4-18.9-23.8-28.3 32.1-60.7C185.7 52.3 98 74.2 139.9 122.4M153.6 0c0 0 26.6 26.6-25.2 67.5 -41.6 32.8-9.5 51.5 0 72.9 -24.3-21.9-42.1-41.2-30.1-59.1C115.8 55 164.3 42.3 153.6 0" />
		</symbol>
		<symbol id="juce" viewBox="0 0 256 256">
			<path fill="#FFFFFF" d="M252 128c0 68.5-55.5 124-124 124S4 196.5 4 128 59.5 4 128 4 252 59.5 252 128z" />
			<path fill="#6CC04A" d="M218.5 37.4C168.5-12.5 87-12.5 37 37.4h0c-49.3 49.9-49.3 131.2 0 181.1 50 49.9 131.5 49.9 181.5 0C268.5 168.6 268.5 87.4 218.5 37.4zM212.8 212.9L212.8 212.9c-47.2 46.4-122.9 46.4-169.4 0 -46.4-46.4-46.4-122.7 0-169 46.4-46.4 122.9-46.4 169.4 0C259.2 90.2 259.2 166.5 212.8 212.9z" />
			<path fill="#F19F53" d="M123.4 26.7c0-4.8-4.1-7.8-9.3-7.8C94.9 21.8 75.6 29.6 59.8 41.7c-4 4-3.4 9.4-0.7 12.1l61.5 61.3c0.7 0.7 2.9 0 2.9-1.4V26.7z" />
			<path fill="#E67E3C" d="M53.4 59.5c-4-3.2-8.7-2.7-12.1 0.7C28.4 75.9 20.5 95.2 18.4 115.2c0 5.8 5.2 8.6 7.9 8.6h87.9c1.4 0 2.1-1.4 0.7-2.9L53.4 59.5z" />
			<path fill="#E73E51" d="M18.4 140.8c2.1 20 10 39.2 22.9 54.9 2.6 3.9 8.7 3.5 11.4 0.7l61.5-61.3c0.7-0.7 0-2.9-0.7-2.9H26.3C21.6 132.3 18.4 135.1 18.4 140.8z" />
			<path fill="#A65A95" d="M59.1 202.9c-2.8 2.8-3.2 7.5 0.7 11.4 15.7 12.8 35 20.7 55 22.8 5.7 0 8.6-3.2 8.6-7.8v-87c0-1.4-1.4-2.1-2.9-0.7L59.1 202.9z" />
			<path fill="#288DC1" d="M141.3 237.8c20-2.1 39.3-10 55-22.8 4-4 3.4-8.8 0.7-11.4l-62.2-62c-0.7-0.7-2.9 0-2.9 0.7v87C132 232.5 134.2 237.8 141.3 237.8z" />
			<path fill="#9CB6D3" d="M202.8 196.5c2.4 2.4 7.1 3.6 11.4-0.7 12.9-15.7 20.7-34.9 22.9-54.9 0-5.3-4-9.3-7.9-9.3h-87.2c-1.4 0-2.1 1.4-0.7 2.9L202.8 196.5z" />
			<path fill="#F0E049" d="M237.1 115.2c-2.1-20-10-39.2-22.9-54.9 -3.8-3.8-8.6-3.6-11.4-0.7l-62.2 62c-0.7 0.7 0 2.9 0.7 2.9h87.2C234.2 123 237.1 121.3 237.1 115.2z" />
			<path fill="#F5BD47" d="M134.9 115.2l61.5-61.3c3.6-3.6 2.5-8.2-0.7-11.4 -15.7-12.8-35-20.7-55-22.8 -5.6 0-8.6 3.1-8.6 7.8v87C132 115.9 134.2 116.6 134.9 115.2" />
		</symbol>
		<symbol id="mjolnir" viewBox="0 0 256 256">
			<path fill="#2F67C1" d="M256 128l-64 110.9H64L0 128 64 17.1h128L256 128z" />
			<path fill="#25C5FF" d="M21.5 90.8L32 72.6l10.7 67.5L21.5 90.8zM222.1 186.7l19.8-34.4L75.1 159.8 222.1 186.7z" />
			<path fill="#2D8FF9" d="M50.1 41.2l-7.4 98.8L32 72.6 50.1 41.2zM256 128l-4.5-7.9L75.1 159.8l166.8-7.5L256 128z" />
			<path fill="#3473F7" d="M80.4 17.1L42.7 140.1l7.4-98.8L64 17.1H80.4zM75.1 159.8l176.3-39.7L235.5 92.4 75.1 159.8z" />
			<path fill="#FFFFFF" d="M208.6 154l1.7 3 -14.7 26.1 -3.4 0.1L185 172l-80-46 -18.8 31.1 -11 2.7 -32.5-19.8 -2.8-10.8 46.1-80.3 11-2.9 33.9 19.8 2.8 11.1L115 107l81 47H208.6z" />
		</symbol>
		<symbol id="qt" viewBox="0 0 256 256">
			<path fill="#FFFFFF" d="M208 32v176L48 240V32H208z" />
			<path fill="#80C342" d="M129 118.1c0 18 0.8 55.2-17.9 55.2 -17.3 0-17.4-37.9-17.4-55.8 0-19.2-0.4-53.1 18.1-51.3C129.2 67.8 129 100.6 129 118.1zM225.4 26.7v168.6c0 15.3-9.2 29.4-21.2 31.5L30.6 256V31.7c0-20.4 16-34.4 35-31.3L225.4 26.7zM154 118.5c0-34.6-7.9-66.9-42.1-70.8 -37.9-4.3-48.1 31.2-48.1 69.3 0 30.4 5.3 67.9 35.1 74.2 6.4 31.3 20.7 29.7 40.1 27.1v-16c-9.5 1-13.3-1.6-15.5-13C149.7 180.4 154 146.4 154 118.5zM203.4 163.2c-3.6 1.9-8 2.8-10.6 2.8 -5.8 0-5.7-5.5-5.7-11.4V98.1l14.7 0.7V83.3l-14.7-1.1v-24.7l-14.3-1.5 -5.8 24.8 -9.3-0.7v16.6l6.5 0.3v62.7c0 24.5 16.7 27.2 39.1 17.7V163.2z" />
		</symbol>
		<symbol id="sdl" viewBox="0 0 256 256">
			<path fill="#D3D4CF" d="M107.1 197.9c-32-1.1-62.5-8.3-86.1-20.5 -2.2-1.1-7.1-3.9-7.1-3.9 0 0 45 26.1 116.5 18.9 81.8-8.3 136.1-56.5 109.2-102.3 -12-20.4-36.7-32.1-36.7-32.1 0.2 0 6.9 3.2 9 4.3C307.1 112.8 237.5 202.4 107.1 197.9L107.1 197.9z" />
			<path fill="#173556" d="M209.2 151.5h-56.6V71.1h21.3v65.1h35.3V151.5zM147.1 111.4c0 15.4-8 27.6-18.3 33.8 -12.1 7.4-24 6.4-57.4 6.4V71.1c35 0 45.7-0.9 57.6 6.3C139.8 84 147.1 95.4 147.1 111.4L147.1 111.4zM125.2 111.2c0-9.8-3.2-17.9-11.7-22.4 -5.2-2.7-8.9-2.7-20.8-2.7v50.4c12.8 0 16.5 0.1 21.8-3.1C122.4 128.6 125.2 120.4 125.2 111.2L125.2 111.2zM30.8 153c-10 0-19.2-1.4-30.8-6.2v-19.1h1.9c14.9 12 35.9 13.4 42.3 6.5 2-2.1 2.5-6.7-1-9.3 -7.5-5.7-29.2-3.9-38.5-16.1 -5.8-7.6-7.4-23 5.8-32.2 15.9-11.1 40.6-7 53.6-1.6v18.4h-1.9c-9.1-7.4-24.7-11.9-35.2-7.3 -5.7 2.5-6.2 8.4-2.6 11.3 8.3 6.5 43 2.7 43 29.1C67.5 145 49.5 153 30.8 153L30.8 153z" />
			<path fill="#173556" d="M42.6 184.2c-0.5 0-0.9 0.4-0.9 0.8 0 0.5 0.4 0.8 0.9 0.8 0.5 0 0.9-0.4 0.9-0.8S43.1 184.2 42.6 184.2zM83.3 191.6c-0.8 0-1.5 0.6-1.5 1.3 0 0.7 0.7 1.3 1.5 1.3 0.8 0 1.5-0.6 1.5-1.3C84.7 192.2 84.1 191.6 83.3 191.6zM62.1 188.8c-0.7 0-1.2 0.5-1.2 1s0.5 1 1.2 1 1.2-0.5 1.2-1S62.8 188.8 62.1 188.8zM106.4 192.5c-1 0-1.9 0.7-1.9 1.6 0 0.9 0.8 1.6 1.9 1.6 1 0 1.9-0.7 1.9-1.6C108.2 193.2 107.4 192.5 106.4 192.5zM130.2 191.2c-1.3 0-2.3 0.9-2.3 2 0 1.1 1 2 2.3 2s2.3-0.9 2.3-2C132.5 192.1 131.5 191.2 130.2 191.2zM154.1 187.1c-1.6 0-2.9 1.1-2.9 2.5 0 1.4 1.3 2.5 2.9 2.5s2.9-1.1 2.9-2.5C157 188.3 155.7 187.1 154.1 187.1zM178.1 179.7c-2 0-3.6 1.4-3.6 3.1 0 1.7 1.6 3.1 3.6 3.1 2 0 3.6-1.4 3.6-3.1C181.7 181.1 180.1 179.7 178.1 179.7zM201 169.7c-2.2 0-4 1.6-4 3.5s1.8 3.5 4 3.5c2.2 0 4-1.6 4-3.5S203.2 169.7 201 169.7zM221.9 155.4c-2.5 0-4.5 1.7-4.5 3.9s2 3.9 4.5 3.9c2.5 0 4.5-1.7 4.5-3.9S224.4 155.4 221.9 155.4zM239.1 135.3c-3.2 0-5.8 2.3-5.8 5 0 2.8 2.6 5 5.8 5s5.8-2.3 5.8-5C244.9 137.5 242.3 135.3 239.1 135.3zM246.5 114.4c-2.5 0-4.5 1.7-4.5 3.9s2 3.9 4.5 3.9c2.5 0 4.5-1.7 4.5-3.9S249 114.4 246.5 114.4zM244 101.4c1.8 0 3.2-1.2 3.2-2.8 0-1.5-1.4-2.8-3.2-2.8 -1.8 0-3.2 1.2-3.2 2.8C240.8 100.1 242.3 101.4 244 101.4zM236.2 86.3c1.3 0 2.3-0.9 2.3-2 0-1.1-1-2-2.3-2 -1.3 0-2.3 0.9-2.3 2C233.9 85.4 235 86.3 236.2 86.3zM227.7 73.7c-0.8 0-1.5 0.6-1.5 1.3 0 0.7 0.7 1.3 1.5 1.3 0.8 0 1.5-0.6 1.5-1.3C229.2 74.3 228.5 73.7 227.7 73.7zM218.5 68.5c0.6 0 1-0.4 1-0.9s-0.5-0.9-1-0.9c-0.6 0-1 0.4-1 0.9C217.5 68.1 218 68.5 218.5 68.5" />
		</symbol>
		<symbol id="stack" viewBox="0 0 256 256">
			<path fill="#BCBBBC" d="M202.5 233.2V164.6h22.8V256H19.9v-91.4h22.8v68.5H202.5" />
			<path fill="#F48023" d="M65.6 210.3h114.2v-22.8H65.6V210.3zM168 0l-18.3 13.6 68.2 91.6 18.3-13.6L168 0zM111.3 54l87.8 73.1 14.6-17.6 -87.8-73.1L111.3 54zM82.7 104.8l103.5 48.2 9.6-20.7L92.3 84.1 82.7 104.8zM67.9 158.3l111.8 23.5 4.7-22.4L72.6 136 67.9 158.3" />
		</symbol>
	</defs>
</svg>
