<svg xmlns="http://www.w3.org/2000/svg" version="1.1" width="0px" height="0px" display="none">
	<defs>
		<symbol id="robot" viewBox="0 0 256 64">
			<path d="M246 9v10h-13v36h-13V19h-13V9H246z M205 32c0 13.255-10.745 24-24 24s-24-10.745-24-24s10.745-24 24-24S205 18.7 205 32z M195 32c0-7.72-6.28-14-14-14s-14 6.28-14 14s6.28 14 14 14S195 39.7 195 32z M193 32c0 6.627-5.373 12-12 12s-12-5.373-12-12 c0-6.627 5.373-12 12-12S193 25.4 193 32z M188 32c0-3.86-3.141-7-7-7s-7 3.14-7 7c0 3.9 3.1 7 7 7S188 35.9 188 32z M152.382 42.484c0 6.791-4.551 12.516-13.722 12.516H111V9h26.82c9.241 0 13.7 5.8 13.7 11.71c0 5.811-3.57 9.54-7.98 10.5 C148.462 32 152.4 36.6 152.4 42.484z M123 27h12.09c2.45 0 4.131-1.725 4.131-4.035c0-2.24-1.681-3.965-4.131-3.965H123V27z M140.131 41c0-2.311-1.681-4-4.621-4H123v8h12.51C138.381 45 140.1 43.5 140.1 41z M105.552 25.745l-2.16 0.9 C103.785 28.4 104 30.2 104 32s-0.215 3.636-0.608 5.361l2.16 0.895c1.021 0.4 1.5 1.6 1.1 2.612l-1.53 3.7 c-0.423 1.021-1.593 1.506-2.613 1.082l-2.16-0.895c-1.924 3.061-4.519 5.655-7.58 7.58l0.895 2.2 c0.423 1.02-0.062 2.19-1.082 2.613l-3.695 1.531c-1.021 0.422-2.191-0.063-2.614-1.083l-0.895-2.16C83.635 55.8 81.8 56 80 56 s-3.635-0.215-5.359-0.608l-0.895 2.159c-0.423 1.021-1.593 1.506-2.613 1.083l-3.695-1.53c-1.021-0.423-1.505-1.594-1.082-2.613 l0.895-2.16c-3.062-1.924-5.656-4.519-7.581-7.58l-2.16 0.895c-1.021 0.424-2.189-0.061-2.613-1.082l-1.53-3.695 c-0.423-1.02 0.062-2.19 1.083-2.613l2.159-0.895C56.215 35.6 56 33.8 56 32s0.215-3.635 0.608-5.359l-2.159-0.895 c-1.021-0.423-1.506-1.593-1.083-2.613l1.53-3.696c0.423-1.02 1.594-1.505 2.613-1.083l2.161 0.9 c1.924-3.061 4.519-5.655 7.58-7.579l-0.896-2.161c-0.423-1.021 0.063-2.19 1.083-2.613l3.695-1.531 c1.021-0.423 2.2 0.1 2.6 1.083l0.895 2.16C76.365 8.2 78.2 8 80 8c1.844 0 3.6 0.2 5.4 0.608l0.895-2.16 c0.422-1.02 1.593-1.504 2.612-1.083l3.695 1.531c1.021 0.4 1.5 1.6 1.1 2.613l-0.895 2.2 c3.061 1.9 5.7 4.5 7.6 7.579l2.161-0.895c1.021-0.422 2.2 0.1 2.6 1.083l1.531 3.7 C107.057 24.2 106.6 25.3 105.6 25.745z M94 32c0-7.72-6.28-14-14-14s-14 6.28-14 14c0 7.7 6.3 14 14 14S94 39.7 94 32z M92 32c0 6.627-5.373 12-12 12c-6.627 0-12-5.373-12-12s5.373-12 12-12C86.627 20 92 25.4 92 32z M87 32c0-3.86-3.141-7-7-7 c-3.86 0-7 3.14-7 7s3.14 7 7 7C83.859 39 87 35.9 87 32z M40.782 38.1L50.303 55H36.511L28.67 40H23v15H10V9h23.851 c10.361 0 16.2 6.7 16.2 15.351C50.093 32.5 45.1 36.6 40.8 38.1z M37.841 23.965c0-3.15-2.66-4.965-5.811-4.965H23v10 h9.031C35.181 29 37.8 27.3 37.8 23.965z" />
		</symbol>
		<symbol id="github" viewBox="0 0 208 64">
			<path d="M186.426 22.842c-5.066 0-8.513 2.2-8.513 2.2v-15.5c0-0.405-0.333-0.73-0.742-0.73h-9.016c-0.41 0-0.743 0.325-0.743 0.7 v45.775c0 0.4 0.3 0.7 0.7 0.732c0.001 0 6.3 0 6.3 0c0.281 0 0.494-0.141 0.652-0.389 c0.155-0.246 0.38-2.109 0.38-2.109s3.687 3.4 10.7 3.398c8.193 0 12.892-4.044 12.892-18.153 C199 24.7 191.5 22.8 186.4 22.842z M182.907 48.634c-3.095-0.091-5.192-1.458-5.192-1.458V32.68c0 0 2.07-1.234 4.61-1.455 c3.213-0.281 6.3 0.7 6.3 8.121C188.634 47.2 187.2 48.8 182.9 48.634z M162.788 24.603l0.003 30.7 c0 0.403-0.335 0.731-0.744 0.731l-5.76 0.024c-0.287 0-0.554-0.198-0.656-0.396c-0.102-0.197-0.328-1.864-0.328-1.864 s-4.744 3.163-10.628 3.163c-7.174 0-12.387-2.227-12.387-11.331c0-9.103 0-21.056 0-21.056c0-0.403 0.334-0.731 0.743-0.731h9.054 c0.409 0 0.7 0.3 0.7 0.731c0 0 0 16.5 0 19.575c0 3.1 0.9 4.5 4.1 4.484c3.216 0 5.482-1.614 5.482-1.614V24.603 c0-0.403 0.333-0.731 0.742-0.731h8.921C162.454 23.9 162.8 24.2 162.8 24.603z M127.878 55.3 c-0.001 0.404-0.331 0.732-0.742 0.732h-9.011c-0.411 0-0.745-0.328-0.745-0.732c0-0.002 0.024-19.58 0.024-19.58h-14.013v19.58 c0 0.404-0.331 0.732-0.742 0.732h-8.99c-0.409 0-0.743-0.328-0.743-0.732V9.542c0-0.405 0.334-0.73 0.743-0.73h8.99 c0.411 0 0.7 0.3 0.7 0.73v16.905h14.013c0 0-0.002-16.903-0.002-16.905c0-0.405 0.333-0.73 0.745-0.73h8.988 c0.412 0 0.7 0.3 0.7 0.73V55.317z M88.498 24.527v7.052c0 0.405-0.333 0.731-0.745 0.731h-6.744 c0 0 0 10.9 0 12.87c0 1.9 1.1 3.4 4.4 3.438c1.035 0 2.041-0.155 2.434-0.155c0.395 0 0.7 0.3 0.7 0.7 l-0.007 6.192c0 0.292-0.156 0.562-0.423 0.657c-0.441 0.157-3.115 0.857-5.351 0.857c-4.894 0-12.145-0.989-12.145-11.048 c0-7.655 0-13.543 0-13.543h-4.712c-0.411 0-0.743-0.326-0.743-0.731V25.95c0-0.333 0.228-0.611 0.538-0.699 c0.312-0.087 4.917-1.169 4.917-1.169v-8.958c0-0.334 0.191-0.488 0.549-0.488h9.189c0.39 0 0.6 0.2 0.6 0.5 c0 0 0 8.7 0 8.669h6.743C88.165 23.8 88.5 24.1 88.5 24.527z M61.917 54.875c0 0.745-0.218 1.169-1.104 1.2 c-4.249 0-8.074 0-8.074 0c-0.737 0-1.307-0.265-1.307-1.154c0-4.848 0-30.274 0-30.274c0-0.401 0.367-0.813 0.778-0.813h8.962 c0.411 0 0.7 0.3 0.7 0.729c0 0 0 20 0 21.13C61.917 46.9 61.9 53.3 61.9 54.875z M56.762 21.2 c-3.199 0-5.796-2.552-5.796-5.699c0-3.15 2.597-5.696 5.796-5.696c3.203 0 5.8 2.5 5.8 5.7 C62.559 18.7 60 21.2 56.8 21.248z M46.341 29.127v23.691c0 0.136-0.024 0.433-0.242 0.55c0 0-5.299 3.632-14.033 3.6 C21.518 57 9 53.8 9 32.626C9 11.4 19.9 7 30.6 7c9.252 0 12.9 2 13.5 2.412c0.219 0.2 0.3 0.4 0.3 0.6 l-1.781 7.339c0 0.401-0.43 0.852-0.895 0.713c-1.478-0.445-3.801-1.369-9.194-1.369c-6.229 0-12.865 1.794-12.865 15.4 c0 13.6 6.4 15.3 10.9 15.258c3.866 0 5.265-0.465 5.265-0.465v-9.438h-6.229c-0.412 0-0.747-0.326-0.747-0.727v-7.595 c0-0.401 0.334-0.727 0.747-0.727h15.966C46.006 28.4 46.3 28.7 46.3 29.127z" />
		</symbol>
	</defs>
</svg>
