<svg xmlns="http://www.w3.org/2000/svg" version="1.1" width="0px" height="0px" display="none">
	<defs>
		<symbol id="logo" viewBox="0 0 256 64">
			<path d="M246 9v10h-13v36h-13V19h-13V9H246zM205 32c0 13.3-10.7 24-24 24s-24-10.7-24-24 10.7-24 24-24S205 18.7 205 32zM195 32c0-7.7-6.3-14-14-14 -7.7 0-14 6.3-14 14s6.3 14 14 14C188.7 46 195 39.7 195 32zM193 32c0 6.6-5.4 12-12 12s-12-5.4-12-12c0-6.6 5.4-12 12-12S193 25.4 193 32zM188 32c0-3.9-3.1-7-7-7 -3.9 0-7 3.1-7 7 0 3.9 3.1 7 7 7C184.9 39 188 35.9 188 32zM152.4 42.5c0 6.8-4.6 12.5-13.7 12.5H111V9h26.8c9.2 0 13.7 5.8 13.7 11.7 0 5.8-3.6 9.5-8 10.5C148.5 32 152.4 36.6 152.4 42.5zM123 27h12.1c2.5 0 4.1-1.7 4.1-4 0-2.2-1.7-4-4.1-4H123V27zM140.1 41c0-2.3-1.7-4-4.6-4H123v8h12.5C138.4 45 140.1 43.5 140.1 41zM105.6 25.7l-2.2 0.9c0.8 3.6 0.8 7.2 0 10.7l2.2 0.9c1 0.4 1.5 1.6 1.1 2.6l-1.5 3.7c-0.4 1-1.6 1.5-2.6 1.1l-2.2-0.9c-1.9 3.1-4.5 5.7-7.6 7.6l0.9 2.2c0.4 1-0.1 2.2-1.1 2.6l-3.7 1.5c-1 0.4-2.2-0.1-2.6-1.1l-0.9-2.2c-3.5 0.8-7.2 0.8-10.7 0l-0.9 2.2c-0.4 1-1.6 1.5-2.6 1.1l-3.7-1.5c-1-0.4-1.5-1.6-1.1-2.6l0.9-2.2c-3.1-1.9-5.7-4.5-7.6-7.6l-2.2 0.9c-1 0.4-2.2-0.1-2.6-1.1l-1.5-3.7c-0.4-1 0.1-2.2 1.1-2.6l2.2-0.9c-0.8-3.6-0.8-7.2 0-10.7l-2.2-0.9c-1-0.4-1.5-1.6-1.1-2.6l1.5-3.7c0.4-1 1.6-1.5 2.6-1.1l2.2 0.9c1.9-3.1 4.5-5.7 7.6-7.6l-0.9-2.2c-0.4-1 0.1-2.2 1.1-2.6l3.7-1.5c1-0.4 2.2 0.1 2.6 1.1l0.9 2.2c3.5-0.8 7.1-0.8 10.7 0l0.9-2.2c0.4-1 1.6-1.5 2.6-1.1l3.7 1.5c1 0.4 1.5 1.6 1.1 2.6l-0.9 2.2c3.1 1.9 5.7 4.5 7.6 7.6l2.2-0.9c1-0.4 2.2 0.1 2.6 1.1l1.5 3.7C107.1 24.2 106.6 25.3 105.6 25.7zM94 32c0-7.7-6.3-14-14-14s-14 6.3-14 14c0 7.7 6.3 14 14 14S94 39.7 94 32zM92 32c0 6.6-5.4 12-12 12 -6.6 0-12-5.4-12-12 0-6.6 5.4-12 12-12C86.6 20 92 25.4 92 32zM87 32c0-3.9-3.1-7-7-7 -3.9 0-7 3.1-7 7s3.1 7 7 7C83.9 39 87 35.9 87 32zM40.8 38.1L50.3 55H36.5L28.7 40H23v15H10V9h23.9c10.4 0 16.2 6.7 16.2 15.4C50.1 32.5 45.1 36.6 40.8 38.1zM37.8 24c0-3.1-2.7-5-5.8-5H23v10h9C35.2 29 37.8 27.3 37.8 24z" />
		</symbol>
		<symbol id="github" viewBox="0 0 208 64">
			<path d="M186.426 22.842c-5.066 0-8.513 2.2-8.513 2.2v-15.5c0-0.405-0.333-0.73-0.742-0.73h-9.016c-0.41 0-0.743 0.325-0.743 0.7 v45.775c0 0.4 0.3 0.7 0.7 0.732c0.001 0 6.3 0 6.3 0c0.281 0 0.494-0.141 0.652-0.389 c0.155-0.246 0.38-2.109 0.38-2.109s3.687 3.4 10.7 3.398c8.193 0 12.892-4.044 12.892-18.153 C199 24.7 191.5 22.8 186.4 22.842z M182.907 48.634c-3.095-0.091-5.192-1.458-5.192-1.458V32.68c0 0 2.07-1.234 4.61-1.455 c3.213-0.281 6.3 0.7 6.3 8.121C188.634 47.2 187.2 48.8 182.9 48.634z M162.788 24.603l0.003 30.7 c0 0.403-0.335 0.731-0.744 0.731l-5.76 0.024c-0.287 0-0.554-0.198-0.656-0.396c-0.102-0.197-0.328-1.864-0.328-1.864 s-4.744 3.163-10.628 3.163c-7.174 0-12.387-2.227-12.387-11.331c0-9.103 0-21.056 0-21.056c0-0.403 0.334-0.731 0.743-0.731h9.054 c0.409 0 0.7 0.3 0.7 0.731c0 0 0 16.5 0 19.575c0 3.1 0.9 4.5 4.1 4.484c3.216 0 5.482-1.614 5.482-1.614V24.603 c0-0.403 0.333-0.731 0.742-0.731h8.921C162.454 23.9 162.8 24.2 162.8 24.603z M127.878 55.3 c-0.001 0.404-0.331 0.732-0.742 0.732h-9.011c-0.411 0-0.745-0.328-0.745-0.732c0-0.002 0.024-19.58 0.024-19.58h-14.013v19.58 c0 0.404-0.331 0.732-0.742 0.732h-8.99c-0.409 0-0.743-0.328-0.743-0.732V9.542c0-0.405 0.334-0.73 0.743-0.73h8.99 c0.411 0 0.7 0.3 0.7 0.73v16.905h14.013c0 0-0.002-16.903-0.002-16.905c0-0.405 0.333-0.73 0.745-0.73h8.988 c0.412 0 0.7 0.3 0.7 0.73V55.317z M88.498 24.527v7.052c0 0.405-0.333 0.731-0.745 0.731h-6.744 c0 0 0 10.9 0 12.87c0 1.9 1.1 3.4 4.4 3.438c1.035 0 2.041-0.155 2.434-0.155c0.395 0 0.7 0.3 0.7 0.7 l-0.007 6.192c0 0.292-0.156 0.562-0.423 0.657c-0.441 0.157-3.115 0.857-5.351 0.857c-4.894 0-12.145-0.989-12.145-11.048 c0-7.655 0-13.543 0-13.543h-4.712c-0.411 0-0.743-0.326-0.743-0.731V25.95c0-0.333 0.228-0.611 0.538-0.699 c0.312-0.087 4.917-1.169 4.917-1.169v-8.958c0-0.334 0.191-0.488 0.549-0.488h9.189c0.39 0 0.6 0.2 0.6 0.5 c0 0 0 8.7 0 8.669h6.743C88.165 23.8 88.5 24.1 88.5 24.527z M61.917 54.875c0 0.745-0.218 1.169-1.104 1.2 c-4.249 0-8.074 0-8.074 0c-0.737 0-1.307-0.265-1.307-1.154c0-4.848 0-30.274 0-30.274c0-0.401 0.367-0.813 0.778-0.813h8.962 c0.411 0 0.7 0.3 0.7 0.729c0 0 0 20 0 21.13C61.917 46.9 61.9 53.3 61.9 54.875z M56.762 21.2 c-3.199 0-5.796-2.552-5.796-5.699c0-3.15 2.597-5.696 5.796-5.696c3.203 0 5.8 2.5 5.8 5.7 C62.559 18.7 60 21.2 56.8 21.248z M46.341 29.127v23.691c0 0.136-0.024 0.433-0.242 0.55c0 0-5.299 3.632-14.033 3.6 C21.518 57 9 53.8 9 32.626C9 11.4 19.9 7 30.6 7c9.252 0 12.9 2 13.5 2.412c0.219 0.2 0.3 0.4 0.3 0.6 l-1.781 7.339c0 0.401-0.43 0.852-0.895 0.713c-1.478-0.445-3.801-1.369-9.194-1.369c-6.229 0-12.865 1.794-12.865 15.4 c0 13.6 6.4 15.3 10.9 15.258c3.866 0 5.265-0.465 5.265-0.465v-9.438h-6.229c-0.412 0-0.747-0.326-0.747-0.727v-7.595 c0-0.401 0.334-0.727 0.747-0.727h15.966C46.006 28.4 46.3 28.7 46.3 29.127z" />
		</symbol>

		<symbol id="simple" viewBox="0 0 256 256">
			<path d="M128 32c-53 0-96 43-96 96 0 53 43 96 96 96s96-43 96-96C224 75 181 32 128 32zM128 204c-41.9 0-76-34.1-76-76 0-41.9 34.1-76 76-76 41.9 0 76 34.1 76 76C204 169.9 169.9 204 128 204zM181.6 102.9l-67.6 68.7c-1.9 1.9-5 1.9-6.9 0l-32.7-33.3c-1.9-1.9-1.9-5.1 0-7l11.3-11.4c1.9-1.9 5-1.9 6.9 0l18 18.3 52.8-53.6c1.9-1.9 5-1.9 6.9 0l11.3 11.4C183.5 97.8 183.5 101 181.6 102.9z" />
		</symbol>
		<symbol id="platform" viewBox="0 0 256 256">
			<path d="M160.1 196.9l8.5 18.2c-25.7 12-55.5 12-81.2 0l8.5-18.2C116.7 206.6 140.3 206.1 160.1 196.9zM203.7 121.4l20-1.7c-2.4-28.2-17.4-54-40.6-70.3L171.6 65.8C189.5 78.3 201.7 98.4 203.7 121.4zM84.4 65.8L72.9 49.3C49.7 65.6 34.8 91.4 32.4 119.6l20 1.7C54.2 99.5 65.6 78.9 84.4 65.8zM65.8 132.1c-4.1-9.2-18.7-7.5-21.6 1.1 -1.7 5-0.4 9.8-0.7 14.8 -0.5 8.8-6 10-11.1 21.1 -4.9 10.7 0.2 9.1-4.4 14 -1.4 1.5-2.7 1.6-3.6 2 -5.1 2.1-1.2 6.5-2.8 10.2 -2 4.6 2 5.7 6.1 6.1 7.5 0.8 7.7 3.6 13.2 3.4 4.9-0.1 4.4-2.6 6.2-3.4 5-2.2 9.3-2 15.1-0.3 1.7 0.5 1.9 5.4 7.7 4.6 2.6-0.4 4.7-1.7 6.4-3.6 1.7-2 3.8-3.3 6.1-4.3 3.1-1.4 5.8-2.9 4.2-6 -0.6-1.2-2.1-2.8-2.6-4.2 -0.8-2.4-0.7-4.6-2.8-5.8 -0.4-0.2-0.5-0.5-0.3-0.9 4.4-14.7-12.1-23.9-13-32.7C67.3 144.5 68.3 137.7 65.8 132.1zM68.8 161.4c4 4 6 8.5 5.4 14.1 0 0.4 0.1 0.5 0.4 0.7 3 1.8 4.8 2.6 4.4 4.8 -0.1 0.4-0.2 0.6-0.7 0.4 0.3-1.5-0.6-2.3-1.8-3 -3.1-1.9-7.2-3.1-7.7 0.6 0 0.2-0.1 0.4-0.3 0.4 -2.1 1-2.9 2.8-3.2 4.9 -0.8 4.7-0.3 9-1.9 10.3 -7.9 5.7-14.5 4-17.6 0.8 -0.6-0.6-1.4-1.9-2.1-2.9 0.8-0.2 2.9-0.4 2.6-2.6 -0.4-3-4.4-6-7-7.7 -7.2-4.6-4.4-12.1 0.1-19.4 0.1-0.1 0.4-0.4-0.1 0.9 -2 4.5-5 9.1-2.1 14.3 0.3 0.6 0.5 1 0.6 0.4 0.2-3.9 1.3-7.5 3-11 1.8-3.8 3.5-7.6 4.6-11.7 0.3-1.3 0.5-2.6 0.8-4 0.9 0.6 1.2 0.8 2.4 1.8 2.8 2.3 5.1 1.5 7.5 0.3 4.8-2.5 3.7-1.8 5.4-3.3 5 15.9 7.7 16 9.4 24.3 0.1 0.4 0.3 0.6 0.7 0.7 1.2 0.1 1.2 0.1 1.5-1.1 1.3-6.2-3-10.6-4.1-12.2C68.1 161 68.5 161 68.8 161.4zM27.8 200.6c-3.6-0.4-6.9-0.6-5.1-5.3 1.4-3.5-1.7-7.2 1.6-8.9 1.6-0.8 3.3-0.8 4.6-2.7 1.3-1.9 3.1-4.7 6.1-2.4 1.1 0.8 10.4 15.6 10.6 16 1.3 2.8 0.2 6.1-4.8 6.6C34.8 203.8 35.7 201.4 27.8 200.6zM73.1 185.1c1.6-0.3 2.9-1.1 4.1-2.2 1.1-0.9 4.6-1 5.3 3.5 0.5 3.5 2.1 3.7 3.2 6.3 0.7 1.7-0.5 2.5-2.8 3.7 -2.9 1.5-4.7 1.9-7.1 4.7 -1.4 1.7-3.1 2.9-5.3 3.5 -4.1 1.1-7.7-2-6.7-6.3 0.4-1.7 0.9-3.1 1.4-4.8 0.9-3 0.3-5.1 1.5-10.7 0.2-1 0.8-1.8 1.9-2.4C69.2 183.3 70.3 185.6 73.1 185.1zM60.4 146.7c1.1 0.7 1.3 1.8 0.6 2.9 -1.1 1.8-2.9 2.1-5.4 3.5 -3.4 2-4.9 1-6.7-0.2 -0.8-0.5-1.5-1.1-2.2-1.7 -0.6-0.6-1.2-1.1-1.7-1.8 -0.5-0.8-0.3-1.6 0.5-2.2 3.4-2.8 4.4-4 6.5-3.9C54 143.3 60.3 146.6 60.4 146.7zM53.5 142.5c-0.1-1.6 0.3-3.1 1.5-4.2 1.7-1.6 4.2-1.4 5.5 0.6 1.4 2.1 1.3 4.3 0.1 6.5 -0.4 0.7-0.6 0.4-2.3-0.3 1.4-2.5 0.3-4.8-1-4.8 -1.9-0.1-1.9 2.9-2 3.3C53.9 143 53.5 143 53.5 142.5zM75.2 179c2.8 2.2-3.4 6.3-5 3.2C68.1 178.2 70.7 175.4 75.2 179zM47.5 140.7c-1.3 0.1-1.4 2.9-0.3 4.5 -0.7 0.7-0.9 0.7-1.4-0.2 -1-1.9-1.2-3.9-0.2-5.9 1-1.7 2.8-1.8 4-0.2 0.8 1.1 1.1 2.3 1 3.6 0 0.5-0.4 0.5-1.5 1C48.8 142.2 48.7 140.6 47.5 140.7zM45.7 148.5c0.5 0.5 1.4 1.4 2 1.9 2.1 1.7 4.5 2 7 0.8 1.7-0.8 3.3-1.8 5-2.7 0.5-0.3 0.2-0.7-0.2-0.5 -1.6 0.8-2.5 1.4-4.3 2.3 -1.5 0.8-3.1 1.2-4.9 0.7 -2-0.6-3.2-1.9-4.1-2.8C45.7 147.9 45.4 148.3 45.7 148.5zM226.9 153.3c-4.8-6.9-12.2-7.8-14.8-7.9 -6.3-0.6-12.3 3.7-15.5 3.7 -3.2 0-8.1-3.6-13.4-3.5 -6.9 0.1-13.2 3.9-16.8 10 -11 18.8 7.2 50.8 17.9 50.4 5.1-0.2 7.1-3.3 13.3-3.3 6.2 0 8 3.3 13.4 3.2 8-0.1 15.6-13.7 18-21.2C214.7 178.1 214.9 160.6 226.9 153.3zM212.1 126c-9.5 0.4-17.3 10.2-16.2 18.4C204.7 145.1 213.2 135.4 212.1 126zM160 46V16l-36 5.1V46H160zM121 21.5l-25 3.7V46h25V21.5zM96 49v21.7l25 3.8V49H96zM124 74.8L160 80V49h-36V74.8z" />
		</symbol>
		<symbol id="native" viewBox="0 0 256 256">
			<path d="M177.3 156.1c-9.8 17.1-28.2 28.6-49.3 28.6 -31.3 0-56.7-25.4-56.7-56.7 0-31.3 25.4-56.7 56.7-56.7 21 0 39.3 11.4 49.1 28.3l-24.7 14.2c-4.9-8.4-14-14.1-24.4-14.1 -15.6 0-28.2 12.6-28.2 28.2 0 15.5 12.6 28.2 28.2 28.2 10.6 0 19.8-5.8 24.6-14.4L177.3 156.1zM213.4 167.6c0 0 0-52.7 0-79.1 0-6.2-2.6-11.3-8.3-14.6 -22.7-13.1-45.5-26.2-68.2-39.3 -6.1-3.5-12.1-3.4-18.2 0.2 -9.1 5.3-54.4 31.3-67.9 39.1 -5.6 3.2-8.3 8.1-8.3 14.6 0 26.4 0 52.7 0 79.1 0 6.2 2.6 11.3 8.3 14.6 13.5 7.8 58.8 33.8 67.9 39.1 6.1 3.6 12 3.7 18.2 0.2 22.7-13.1 45.5-26.2 68.2-39.3C210.8 178.8 213.4 173.8 213.4 167.6zM185 131h-6v7h-7v-7h-6v-6h6v-7h7v7h6V131zM209 131h-7v7h-6v-7h-7v-6h7v-7h6v7h7V131z" />
		</symbol>
		<symbol id="nodejs" viewBox="0 0 256 256">
			<path d="M128 224c-2.6 0-5.1-0.7-7.4-2L97.1 208.1c-3.5-2-1.8-2.7-0.6-3 4.7-1.6 5.6-2 10.6-4.8 0.5-0.3 1.2-0.2 1.7 0.1l18 10.7c0.7 0.4 1.6 0.4 2.2 0l70.4-40.6c0.7-0.4 1.1-1.1 1.1-1.9V87.4c0-0.8-0.4-1.5-1.1-1.9l-70.3-40.6c-0.6-0.4-1.5-0.4-2.2 0L56.6 85.4c-0.7 0.4-1.1 1.2-1.1 1.9v81.2c0 0.8 0.4 1.5 1.1 1.9l19.3 11.1c10.5 5.2 16.9-0.9 16.9-7.1V94.3c0-1.1 0.9-2 2-2h8.9c1.1 0 2 0.9 2 2v80.2c0 14-7.6 22-20.8 22 -4.1 0-7.3 0-16.2-4.4l-18.4-10.6c-4.6-2.6-7.4-7.6-7.4-12.8V87.4c0-5.3 2.8-10.2 7.4-12.8l70.4-40.7c4.5-2.5 10.4-2.5 14.8 0l70.4 40.7c4.6 2.6 7.4 7.5 7.4 12.8v81.2c0 5.3-2.8 10.2-7.4 12.8l-70.4 40.6C133.1 223.3 130.6 224 128 224zM184.8 143.9c0-15.2-10.3-19.2-31.9-22.1 -21.9-2.9-24.1-4.4-24.1-9.5 0-4.2 1.9-9.9 18.1-9.9 14.5 0 19.8 3.1 22 12.9 0.2 0.9 1 1.6 2 1.6h9.1c0.6 0 1.1-0.2 1.5-0.6 0.4-0.4 0.6-1 0.5-1.6 -1.4-16.8-12.6-24.6-35.1-24.6 -20.1 0-32 8.5-32 22.7 0 15.4 11.9 19.7 31.2 21.6 23 2.3 24.8 5.6 24.8 10.2 0 7.9-6.3 11.2-21.1 11.2 -18.6 0-22.7-4.7-24.1-13.9 -0.2-1-1-1.7-2-1.7h-9.1c-1.1 0-2 0.9-2 2 0 11.8 6.5 26 37.2 26C172 168.1 184.8 159.3 184.8 143.9zM232.1 72c4.4 0 7.9 3.6 7.9 8 0 4.5-3.5 8.1-8 8.1 -4.4 0-8-3.6-8-8.1 0-4.4 3.6-8 8-8H232.1zM232 73.6c-3.4 0-6.1 2.9-6.1 6.4 0 3.6 2.7 6.4 6.1 6.4 3.4 0 6.1-2.8 6.1-6.4 0-3.6-2.7-6.4-6.1-6.4H232zM230.6 84.7h-1.9v-8.9c0.7-0.1 1.5-0.2 2.9-0.2 1.5 0 2.5 0.2 3.1 0.7 0.5 0.4 0.8 1 0.8 1.9 0 1.1-0.7 1.8-1.7 2.1v0.1c0.8 0.1 1.3 0.9 1.4 2.2 0.2 1.4 0.4 1.9 0.5 2.2h-2c-0.2-0.3-0.4-1.1-0.5-2.3 -0.1-1-0.7-1.4-1.7-1.4h-0.9V84.7zM230.6 79.5h0.9c1.1 0 2-0.4 2-1.3 0-0.7-0.5-1.3-1.8-1.3 -0.5 0-0.8 0-1 0V79.5z"/>
		</symbol>
	</defs>
</svg>
