<svg xmlns="http://www.w3.org/2000/svg" width="256" height="64" viewBox="0 0 256 64">
	<path d="M246 9v10h-13v36h-13V19h-13V9H246zM205 32c0 13.3-10.7 24-24 24s-24-10.7-24-24 10.7-24 24-24S205 18.7 205 32zM195 32c0-7.7-6.3-14-14-14 -7.7 0-14 6.3-14 14s6.3 14 14 14C188.7 46 195 39.7 195 32zM193 32c0 6.6-5.4 12-12 12s-12-5.4-12-12c0-6.6 5.4-12 12-12S193 25.4 193 32zM188 32c0-3.9-3.1-7-7-7 -3.9 0-7 3.1-7 7 0 3.9 3.1 7 7 7C184.9 39 188 35.9 188 32zM152.4 42.5c0 6.8-4.6 12.5-13.7 12.5H111V9h26.8c9.2 0 13.7 5.8 13.7 11.7 0 5.8-3.6 9.5-8 10.5C148.5 32 152.4 36.6 152.4 42.5zM123 27h12.1c2.5 0 4.1-1.7 4.1-4 0-2.2-1.7-4-4.1-4H123V27zM140.1 41c0-2.3-1.7-4-4.6-4H123v8h12.5C138.4 45 140.1 43.5 140.1 41zM105.6 25.7l-2.2 0.9c0.8 3.6 0.8 7.2 0 10.7l2.2 0.9c1 0.4 1.5 1.6 1.1 2.6l-1.5 3.7c-0.4 1-1.6 1.5-2.6 1.1l-2.2-0.9c-1.9 3.1-4.5 5.7-7.6 7.6l0.9 2.2c0.4 1-0.1 2.2-1.1 2.6l-3.7 1.5c-1 0.4-2.2-0.1-2.6-1.1l-0.9-2.2c-3.5 0.8-7.2 0.8-10.7 0l-0.9 2.2c-0.4 1-1.6 1.5-2.6 1.1l-3.7-1.5c-1-0.4-1.5-1.6-1.1-2.6l0.9-2.2c-3.1-1.9-5.7-4.5-7.6-7.6l-2.2 0.9c-1 0.4-2.2-0.1-2.6-1.1l-1.5-3.7c-0.4-1 0.1-2.2 1.1-2.6l2.2-0.9c-0.8-3.6-0.8-7.2 0-10.7l-2.2-0.9c-1-0.4-1.5-1.6-1.1-2.6l1.5-3.7c0.4-1 1.6-1.5 2.6-1.1l2.2 0.9c1.9-3.1 4.5-5.7 7.6-7.6l-0.9-2.2c-0.4-1 0.1-2.2 1.1-2.6l3.7-1.5c1-0.4 2.2 0.1 2.6 1.1l0.9 2.2c3.5-0.8 7.1-0.8 10.7 0l0.9-2.2c0.4-1 1.6-1.5 2.6-1.1l3.7 1.5c1 0.4 1.5 1.6 1.1 2.6l-0.9 2.2c3.1 1.9 5.7 4.5 7.6 7.6l2.2-0.9c1-0.4 2.2 0.1 2.6 1.1l1.5 3.7C107.1 24.2 106.6 25.3 105.6 25.7zM94 32c0-7.7-6.3-14-14-14s-14 6.3-14 14c0 7.7 6.3 14 14 14S94 39.7 94 32zM92 32c0 6.6-5.4 12-12 12 -6.6 0-12-5.4-12-12 0-6.6 5.4-12 12-12C86.6 20 92 25.4 92 32zM87 32c0-3.9-3.1-7-7-7 -3.9 0-7 3.1-7 7s3.1 7 7 7C83.9 39 87 35.9 87 32zM40.8 38.1L50.3 55H36.5L28.7 40H23v15H10V9h23.9c10.4 0 16.2 6.7 16.2 15.4C50.1 32.5 45.1 36.6 40.8 38.1zM37.8 24c0-3.1-2.7-5-5.8-5H23v10h9C35.2 29 37.8 27.3 37.8 24z" />
</svg>
